<?xml version="1.0" encoding="utf-8"?>
<!-- Generator: Adobe Illustrator 16.0.0, SVG Export Plug-In . SVG Version: 6.00 Build 0)  -->
<!DOCTYPE svg PUBLIC "-//W3C//DTD SVG 1.1//EN" "http://www.w3.org/Graphics/SVG/1.1/DTD/svg11.dtd">
<svg version="1.1" id="Layer_1" xmlns="http://www.w3.org/2000/svg" xmlns:xlink="http://www.w3.org/1999/xlink" x="0px" y="0px"
	 width="507.343px" height="507.344px" viewBox="38.963 116.687 507.343 507.344"
	 enable-background="new 38.963 116.687 507.343 507.344" xml:space="preserve">
<path fill="#3A4650" d="M410.679,352.136c-18.982,0-34.436,15.453-34.436,34.437c0,18.982,15.453,34.436,34.436,34.436
	s34.436-15.453,34.436-34.436C445.093,367.59,429.662,352.136,410.679,352.136z M410.679,407.817
	c-11.711,0-21.246-9.534-21.246-21.245s9.535-21.245,21.246-21.245s21.244,9.534,21.244,21.245S422.39,407.817,410.679,407.817z
	 M510.285,116.687H74.984c-19.85,0-36.021,16.172-36.021,36.021V588.01c0,19.851,16.172,36.021,36.021,36.021h435.301
	c19.852,0,36.021-16.172,36.021-36.021V152.708C546.306,132.858,530.134,116.687,510.285,116.687z M503.078,311.593h30.059v41.158
	h-70.35c-11.416-16.594-30.504-27.502-52.131-27.502c-21.604,0-40.713,10.908-52.129,27.502h-76.904
	c-3.636,0-6.596,2.938-6.596,6.596v251.518h-41.158v-30.061c0-3.636-2.938-6.596-6.596-6.596c-3.636,0-6.596,2.938-6.596,6.596
	v30.061h-41.158V359.346c0-3.636-2.938-6.596-6.596-6.596H52.136v-41.158h30.06c3.636,0,6.596-2.938,6.596-6.596
	c0-3.636-2.938-6.596-6.596-6.596h-30.06v-41.158h120.788c3.636,0,6.596-2.938,6.596-6.596V129.86h41.158v30.06
	c0,3.636,2.938,6.596,6.596,6.596c3.636,0,6.596-2.938,6.596-6.596v-30.06h41.158v120.787c0,3.636,2.938,6.596,6.596,6.596H533.14
	v41.158H503.08c-3.637,0-6.596,2.938-6.596,6.596c0,3.636,2.959,6.596,6.596,6.596H503.078z M387.804,466.566l17.461,25.05
	c1.227,1.775,3.256,2.812,5.412,2.812s4.164-1.057,5.41-2.812l17.463-25.05c26.697,3.826,42.531,13.593,42.531,21.266
	c0,9.556-24.881,22.873-65.404,22.873c-40.525,0-65.406-13.317-65.406-22.873C345.271,480.159,361.083,470.371,387.804,466.566z
	 M427.757,451.81l-17.08,24.5l-17.061-24.457c-3.021-4.651-6.447-9.407-9.744-13.994c-11.416-15.876-23.232-32.279-23.232-49.382
	c0-27.587,22.449-50.036,50.037-50.036c27.586,0,50.035,22.449,50.035,50.036c0,17.546-12.217,34.395-24.035,50.692
	C433.675,443.334,430.548,447.646,427.757,451.81L427.757,451.81z M533.138,152.709v91.365h-244.92V129.861h222.067
	c12.598,0,22.852,10.253,22.852,22.852L533.138,152.709z M74.988,129.857h91.365v114.196L52.14,244.075v-91.364
	c0-12.6,10.252-22.853,22.852-22.853L74.988,129.857z M52.137,588.007V365.94h114.196v244.92H74.99
	c-12.599,0-22.852-10.252-22.852-22.852L52.137,588.007z M510.287,610.859H288.219V365.938h63.419
	c-2.684,6.998-4.164,14.607-4.164,22.556c0,21.351,13.656,40.334,25.705,57.077c2.219,3.086,4.355,6.067,6.385,9.006
	c-29.152,5.411-47.459,17.989-47.459,33.272c0,23.401,40.482,36.043,78.578,36.043s78.576-12.642,78.576-36.043
	c0-15.283-18.264-27.84-47.393-33.272c1.754-2.495,3.594-5.031,5.496-7.653c12.43-17.144,26.529-36.592,26.529-58.43
	c0-7.948-1.48-15.537-4.166-22.556h63.398l0.021,222.067c0,12.599-10.252,22.852-22.852,22.852L510.287,610.859z M233.87,253.988
	v36.634c0,3.637-2.938,6.596-6.596,6.596c-3.636,0-6.596-2.938-6.596-6.596v-36.634c0-3.636,2.938-6.596,6.596-6.596
	C230.911,247.414,233.87,250.352,233.87,253.988z M233.87,450.074v36.634c0,3.636-2.938,6.596-6.596,6.596
	c-3.636,0-6.596-2.938-6.596-6.596v-36.634c0-3.637,2.938-6.596,6.596-6.596C230.911,443.478,233.87,446.437,233.87,450.074z
	 M233.87,384.712v36.634c0,3.637-2.938,6.596-6.596,6.596c-3.636,0-6.596-2.938-6.596-6.596v-36.634
	c0-3.636,2.938-6.596,6.596-6.596C230.911,378.116,233.87,381.075,233.87,384.712z M233.87,188.648v36.634
	c0,3.636-2.938,6.596-6.596,6.596c-3.636,0-6.596-2.938-6.596-6.596v-36.634c0-3.636,2.938-6.596,6.596-6.596
	C230.911,182.052,233.87,184.991,233.87,188.648z M233.87,515.441v36.634c0,3.636-2.938,6.596-6.596,6.596
	c-3.636,0-6.596-2.938-6.596-6.596v-36.634c0-3.637,2.938-6.596,6.596-6.596C230.911,508.845,233.87,511.804,233.87,515.441z
	 M233.87,319.355v36.634c0,3.637-2.938,6.596-6.596,6.596c-3.636,0-6.596-2.938-6.596-6.596v-36.634
	c0-3.636,2.938-6.596,6.596-6.596C230.911,312.781,233.87,315.719,233.87,319.355z M219.517,305.002
	c0,3.637-2.938,6.596-6.596,6.596h-36.634c-3.636,0-6.596-2.938-6.596-6.596c0-3.636,2.938-6.596,6.596-6.596h36.634
	C216.557,298.406,219.517,301.366,219.517,305.002z M154.155,305.002c0,3.637-2.938,6.596-6.596,6.596h-36.634
	c-3.636,0-6.596-2.938-6.596-6.596c0-3.636,2.938-6.596,6.596-6.596h36.634C151.195,298.406,154.155,301.366,154.155,305.002z
	 M480.949,305.002c0,3.637-2.939,6.596-6.598,6.596h-36.633c-3.637,0-6.596-2.938-6.596-6.596c0-3.636,2.938-6.596,6.596-6.596
	h36.633C478.009,298.406,480.949,301.366,480.949,305.002z M415.585,305.002c0,3.637-2.938,6.596-6.596,6.596h-36.633
	c-3.637,0-6.596-2.938-6.596-6.596c0-3.636,2.938-6.596,6.596-6.596h36.633C412.648,298.406,415.585,301.366,415.585,305.002z
	 M350.224,305.002c0,3.637-2.938,6.596-6.596,6.596h-36.635c-3.635,0-6.596-2.938-6.596-6.596c0-3.636,2.939-6.596,6.596-6.596
	h36.635C347.285,298.406,350.224,301.366,350.224,305.002z M284.884,305.002c0,3.637-2.938,6.596-6.596,6.596h-36.634
	c-3.636,0-6.596-2.938-6.596-6.596c0-3.636,2.938-6.596,6.596-6.596h36.634C281.924,298.406,284.884,301.366,284.884,305.002z"/>
</svg>
