<?xml version="1.0" encoding="utf-8"?>
<!-- Generator: Adobe Illustrator 16.0.0, SVG Export Plug-In . SVG Version: 6.00 Build 0)  -->
<!DOCTYPE svg PUBLIC "-//W3C//DTD SVG 1.1//EN" "http://www.w3.org/Graphics/SVG/1.1/DTD/svg11.dtd">
<svg version="1.1" id="Layer_1" xmlns="http://www.w3.org/2000/svg" xmlns:xlink="http://www.w3.org/1999/xlink" x="0px" y="0px"
	 width="898.694px" height="228.083px" viewBox="0 0 898.694 228.083" enable-background="new 0 0 898.694 228.083"
	 xml:space="preserve">
<rect fill="#FFFFFF" width="335.883" height="228.083"/>
<rect x="6.459" y="6.255" fill="#005AAA" width="322.965" height="215.313"/>
<polygon fill="#FFF02C" points="161.061,53.168 167.875,48.195 174.69,53.168 172.097,45.125 179.02,40.151 170.486,40.151 
	167.875,32.012 165.264,40.162 156.736,40.151 163.653,45.125 "/>
<polygon fill="#FFF02C" points="125.793,62.644 132.607,57.67 139.419,62.644 136.829,54.601 143.747,49.626 135.214,49.626 
	132.604,41.478 129.993,49.636 121.464,49.626 128.381,54.601 "/>
<polygon fill="#FFF02C" points="106.802,67.341 104.191,75.5 95.663,75.49 102.581,80.464 99.988,88.507 106.802,83.534 
	113.617,88.507 111.024,80.464 117.941,75.49 109.413,75.49 "/>
<polygon fill="#FFF02C" points="97.337,118.756 104.148,123.729 101.558,115.687 108.475,110.713 99.948,110.713 97.337,102.564 
	94.726,110.731 86.193,110.713 93.115,115.687 90.522,123.729 "/>
<polygon fill="#FFF02C" points="109.414,146.042 106.803,137.893 104.19,146.051 95.664,146.042 102.581,151.015 99.987,159.059 
	106.803,154.077 113.618,159.059 111.023,151.015 117.94,146.042 "/>
<polygon fill="#FFF02C" points="135.268,171.896 132.657,163.756 130.05,171.905 121.518,171.896 128.435,176.87 125.847,184.913 
	132.662,179.939 139.472,184.913 136.883,176.87 143.8,171.896 "/>
<polygon fill="#FFF02C" points="170.491,181.265 167.88,173.116 165.273,181.274 156.741,181.265 163.658,186.238 161.07,194.282 
	167.885,189.308 174.695,194.282 172.101,186.238 179.023,181.265 "/>
<polygon fill="#FFF02C" points="205.714,171.896 203.108,163.756 200.491,171.905 191.969,171.896 198.881,176.87 196.293,184.913 
	203.108,179.939 209.922,184.913 207.324,176.87 214.246,171.896 "/>
<polygon fill="#FFF02C" points="231.577,146.042 228.961,137.893 226.346,146.051 217.823,146.042 224.744,151.015 222.147,159.059 
	228.961,154.077 235.776,159.059 233.178,151.015 240.1,146.042 "/>
<polygon fill="#FFF02C" points="249.469,110.615 240.937,110.615 238.322,102.466 235.715,110.624 227.183,110.615 234.104,115.588 
	231.515,123.632 238.322,118.649 245.136,123.632 242.548,115.588 "/>
<polygon fill="#FFF02C" points="222.146,88.399 228.96,83.426 235.775,88.399 233.179,80.356 240.101,75.392 231.577,75.392 
	228.96,67.244 226.346,75.401 217.822,75.392 224.744,80.356 "/>
<polygon fill="#FFF02C" points="203.205,41.487 200.599,49.645 192.066,49.626 198.979,54.61 196.391,62.653 203.214,57.671 
	210.019,62.653 207.431,54.61 214.353,49.626 205.812,49.626 "/>
<path fill="#005AAA" d="M373.239,70.822l10.41-1.012c0.626,3.493,1.897,6.06,3.813,7.698c1.915,1.639,4.5,2.458,7.753,2.458
	c3.445,0,6.042-0.729,7.789-2.187c1.746-1.458,2.62-3.163,2.62-5.114c0-1.253-0.368-2.319-1.102-3.199
	c-0.735-0.879-2.019-1.644-3.85-2.295c-1.253-0.434-4.108-1.204-8.566-2.313c-5.735-1.422-9.759-3.169-12.072-5.242
	c-3.253-2.915-4.878-6.469-4.878-10.662c0-2.697,0.764-5.222,2.293-7.572c1.531-2.349,3.735-4.138,6.616-5.367
	c2.879-1.229,6.354-1.844,10.426-1.844c6.651,0,11.657,1.459,15.019,4.374c3.36,2.916,5.125,6.807,5.294,11.674l-10.698,0.47
	c-0.458-2.722-1.44-4.68-2.946-5.873c-1.506-1.193-3.765-1.789-6.776-1.789c-3.11,0-5.543,0.638-7.302,1.916
	c-1.133,0.818-1.698,1.915-1.698,3.289c0,1.253,0.529,2.325,1.59,3.217c1.349,1.132,4.626,2.313,9.831,3.541
	c5.205,1.23,9.054,2.501,11.548,3.813c2.493,1.313,4.445,3.108,5.855,5.386c1.409,2.277,2.114,5.091,2.114,8.438
	c0,3.036-0.844,5.88-2.53,8.53c-1.687,2.651-4.072,4.621-7.156,5.91C403.551,88.356,399.709,89,395.107,89
	c-6.7,0-11.845-1.548-15.434-4.644C376.082,81.261,373.938,76.749,373.239,70.822"/>
<path fill="#005AAA" d="M450.514,88.062v-5.748c-1.398,2.049-3.235,3.664-5.511,4.845c-2.278,1.18-4.681,1.77-7.211,1.77
	c-2.579,0-4.892-0.566-6.94-1.699c-2.048-1.132-3.53-2.722-4.445-4.771c-0.916-2.047-1.374-4.878-1.374-8.493V49.677h10.156v17.637
	c0,5.399,0.187,8.705,0.561,9.922c0.372,1.218,1.053,2.18,2.042,2.891c0.987,0.712,2.241,1.067,3.759,1.067
	c1.734,0,3.288-0.476,4.663-1.428c1.372-0.951,2.313-2.132,2.818-3.542c0.507-1.41,0.759-4.861,0.759-10.355V49.677h10.157v38.384
	H450.514z"/>
<path fill="#005AAA" d="M466.273,49.677h5.638v-2.892c0-3.229,0.343-5.639,1.03-7.229c0.686-1.591,1.952-2.885,3.795-3.886
	c1.844-1,4.175-1.5,6.993-1.5c2.892,0,5.724,0.433,8.494,1.301l-1.372,7.084c-1.615-0.385-3.17-0.578-4.664-0.578
	c-1.47,0-2.524,0.344-3.163,1.031c-0.638,0.686-0.957,2.005-0.957,3.958v2.71h7.59v7.988h-7.59v30.396h-10.156V57.665h-5.638V49.677
	z M494.79,35.075h10.156v9.397H494.79V35.075z M494.79,49.677h10.156v38.384H494.79V49.677z"/>
<path fill="#005AAA" d="M550.595,88.062h-10.156v-19.59c0-4.143-0.217-6.825-0.65-8.041c-0.434-1.217-1.139-2.163-2.114-2.839
	c-0.977-0.674-2.151-1.011-3.525-1.011c-1.759,0-3.337,0.482-4.734,1.445c-1.398,0.964-2.357,2.242-2.874,3.832
	c-0.518,1.591-0.777,4.53-0.777,8.819v17.385h-10.157V49.677h9.434v5.638c3.348-4.337,7.566-6.506,12.65-6.506
	c2.241,0,4.289,0.404,6.145,1.211c1.855,0.808,3.258,1.837,4.21,3.09c0.952,1.253,1.615,2.675,1.988,4.265
	c0.373,1.591,0.56,3.868,0.56,6.831V88.062z"/>
<path fill="#005AAA" d="M568.487,61.387l-9.216-1.662c1.035-3.71,2.819-6.457,5.349-8.241c2.53-1.783,6.29-2.675,11.277-2.675
	c4.53,0,7.903,0.536,10.12,1.608c2.217,1.073,3.777,2.435,4.681,4.085c0.903,1.65,1.355,4.68,1.355,9.09l-0.108,11.855
	c0,3.373,0.162,5.861,0.488,7.464c0.325,1.602,0.933,3.32,1.825,5.15h-10.048c-0.266-0.674-0.591-1.675-0.976-3
	c-0.168-0.602-0.289-0.999-0.361-1.193c-1.734,1.687-3.59,2.952-5.567,3.795c-1.975,0.844-4.083,1.265-6.324,1.265
	c-3.953,0-7.067-1.071-9.343-3.216c-2.278-2.145-3.416-4.855-3.416-8.132c0-2.169,0.518-4.103,1.554-5.801
	c1.035-1.7,2.488-3.001,4.355-3.904c1.867-0.904,4.56-1.692,8.078-2.368c4.747-0.89,8.036-1.722,9.867-2.493v-1.012
	c0-1.953-0.481-3.344-1.446-4.175c-0.963-0.832-2.782-1.247-5.457-1.247c-1.807,0-3.217,0.354-4.229,1.066
	C569.933,58.358,569.115,59.605,568.487,61.387 M582.077,69.628c-1.301,0.434-3.361,0.952-6.18,1.554
	c-2.819,0.602-4.663,1.193-5.53,1.771c-1.325,0.939-1.988,2.132-1.988,3.578c0,1.422,0.53,2.651,1.591,3.687
	c1.06,1.036,2.408,1.554,4.048,1.554c1.83,0,3.578-0.602,5.241-1.807c1.229-0.915,2.035-2.036,2.421-3.361
	c0.265-0.867,0.397-2.518,0.397-4.952V69.628z"/>
<path fill="#005AAA" d="M636.978,88.062h-10.156v-19.59c0-4.143-0.217-6.825-0.65-8.041c-0.434-1.217-1.139-2.163-2.114-2.839
	c-0.976-0.674-2.151-1.011-3.524-1.011c-1.76,0-3.338,0.482-4.735,1.445c-1.398,0.964-2.356,2.242-2.873,3.832
	c-0.52,1.591-0.778,4.53-0.778,8.819v17.385h-10.157V49.677h9.434v5.638c3.349-4.337,7.566-6.506,12.651-6.506
	c2.24,0,4.288,0.404,6.144,1.211c1.855,0.808,3.258,1.837,4.21,3.09c0.952,1.253,1.615,2.675,1.989,4.265
	c0.372,1.591,0.559,3.868,0.559,6.831V88.062z"/>
<path fill="#005AAA" d="M680.748,61.026l-10.011,1.808c-0.338-2-1.102-3.507-2.296-4.519c-1.192-1.012-2.741-1.517-4.644-1.517
	c-2.53,0-4.549,0.873-6.054,2.62c-1.506,1.747-2.259,4.669-2.259,8.765c0,4.554,0.765,7.77,2.296,9.649
	c1.529,1.879,3.583,2.82,6.162,2.82c1.927,0,3.505-0.548,4.735-1.645c1.228-1.097,2.095-2.982,2.602-5.657l9.976,1.699
	c-1.036,4.579-3.025,8.036-5.964,10.373c-2.94,2.337-6.88,3.506-11.818,3.506c-5.616,0-10.092-1.771-13.428-5.314
	c-3.338-3.541-5.007-8.444-5.007-14.71c0-6.336,1.675-11.27,5.024-14.8c3.349-3.53,7.88-5.295,13.591-5.295
	c4.674,0,8.39,1.006,11.15,3.018C677.562,53.84,679.542,56.906,680.748,61.026"/>
<path fill="#005AAA" d="M688.448,35.075h10.156v9.397h-10.156V35.075z M688.448,49.677h10.156v38.384h-10.156V49.677z"/>
<path fill="#005AAA" d="M718.735,88.062h-10.156V49.677h9.433v5.457c1.614-2.578,3.066-4.277,4.355-5.096
	c1.289-0.818,2.753-1.229,4.392-1.229c2.313,0,4.542,0.638,6.687,1.916l-3.145,8.855c-1.712-1.108-3.302-1.663-4.771-1.663
	c-1.422,0-2.627,0.392-3.614,1.175c-0.989,0.783-1.765,2.199-2.331,4.247c-0.567,2.048-0.85,6.338-0.85,12.867V88.062z"/>
<path fill="#005AAA" d="M745.409,61.387l-9.216-1.662c1.035-3.71,2.819-6.457,5.349-8.241c2.53-1.783,6.289-2.675,11.277-2.675
	c4.53,0,7.903,0.536,10.12,1.608c2.216,1.073,3.777,2.435,4.681,4.085c0.903,1.65,1.355,4.68,1.355,9.09l-0.108,11.855
	c0,3.373,0.162,5.861,0.488,7.464c0.325,1.602,0.933,3.32,1.825,5.15h-10.048c-0.266-0.674-0.591-1.675-0.977-3
	c-0.168-0.602-0.289-0.999-0.36-1.193c-1.735,1.687-3.591,2.952-5.567,3.795c-1.975,0.844-4.084,1.265-6.325,1.265
	c-3.952,0-7.066-1.071-9.342-3.216c-2.278-2.145-3.417-4.855-3.417-8.132c0-2.169,0.518-4.103,1.555-5.801
	c1.035-1.7,2.488-3.001,4.355-3.904c1.867-0.904,4.559-1.692,8.078-2.368c4.746-0.89,8.036-1.722,9.867-2.493v-1.012
	c0-1.953-0.482-3.344-1.446-4.175c-0.963-0.832-2.783-1.247-5.457-1.247c-1.807,0-3.218,0.354-4.229,1.066
	C746.854,58.358,746.036,59.605,745.409,61.387 M758.999,69.628c-1.301,0.434-3.361,0.952-6.18,1.554
	c-2.82,0.602-4.663,1.193-5.531,1.771c-1.324,0.939-1.987,2.132-1.987,3.578c0,1.422,0.529,2.651,1.59,3.687
	c1.06,1.036,2.409,1.554,4.048,1.554c1.831,0,3.578-0.602,5.242-1.807c1.228-0.915,2.035-2.036,2.421-3.361
	c0.264-0.867,0.397-2.518,0.397-4.952V69.628z"/>
<polygon fill="#005AAA" points="375.95,176.888 375.95,123.902 415.239,123.902 415.239,132.865 386.648,132.865 386.648,144.613 
	413.25,144.613 413.25,153.539 386.648,153.539 386.648,167.959 416.25,167.959 416.25,176.888 "/>
<path fill="#005AAA" d="M450.514,176.888v-5.747c-1.398,2.048-3.235,3.663-5.511,4.844c-2.278,1.18-4.681,1.771-7.211,1.771
	c-2.579,0-4.892-0.567-6.94-1.7c-2.048-1.132-3.53-2.722-4.445-4.771c-0.916-2.047-1.374-4.878-1.374-8.493v-24.288h10.156v17.638
	c0,5.398,0.187,8.704,0.561,9.921c0.372,1.218,1.053,2.18,2.042,2.891c0.987,0.712,2.241,1.067,3.759,1.067
	c1.734,0,3.288-0.476,4.663-1.428c1.372-0.951,2.313-2.132,2.818-3.542c0.507-1.409,0.759-4.861,0.759-10.355v-16.192h10.157v38.384
	H450.514z"/>
<path fill="#005AAA" d="M480.188,176.888h-10.156v-38.384h9.433v5.457c1.614-2.578,3.066-4.276,4.355-5.096
	c1.289-0.818,2.753-1.229,4.392-1.229c2.313,0,4.542,0.639,6.687,1.917l-3.145,8.854c-1.712-1.108-3.302-1.663-4.771-1.663
	c-1.422,0-2.627,0.392-3.614,1.175c-0.989,0.784-1.765,2.199-2.331,4.247c-0.567,2.049-0.85,6.338-0.85,12.867V176.888z"/>
<path fill="#005AAA" d="M496.923,157.153c0-3.373,0.83-6.638,2.494-9.794c1.662-3.157,4.017-5.567,7.065-7.228
	c3.049-1.664,6.452-2.495,10.21-2.495c5.808,0,10.567,1.886,14.278,5.656c3.71,3.772,5.566,8.537,5.566,14.296
	c0,5.807-1.874,10.62-5.621,14.439c-3.747,3.819-8.463,5.729-14.149,5.729c-3.519,0-6.874-0.796-10.067-2.386
	c-3.193-1.591-5.62-3.922-7.282-6.994C497.753,165.304,496.923,161.563,496.923,157.153 M507.332,157.695
	c0,3.808,0.904,6.724,2.71,8.748c1.809,2.024,4.036,3.036,6.687,3.036c2.65,0,4.874-1.012,6.668-3.036
	c1.795-2.024,2.693-4.964,2.693-8.819c0-3.759-0.898-6.65-2.693-8.675c-1.794-2.024-4.018-3.035-6.668-3.035
	c-2.651,0-4.878,1.011-6.687,3.035C508.236,150.974,507.332,153.888,507.332,157.695"/>
<path fill="#005AAA" d="M544.198,138.503h9.469v5.638c1.23-1.927,2.891-3.493,4.989-4.699c2.095-1.204,4.421-1.807,6.975-1.807
	c4.457,0,8.24,1.748,11.349,5.242c3.108,3.493,4.663,8.361,4.663,14.602c0,6.409-1.567,11.391-4.7,14.944
	c-3.132,3.555-6.927,5.332-11.385,5.332c-2.12,0-4.042-0.421-5.765-1.266c-1.722-0.843-3.536-2.288-5.439-4.337v19.337h-10.156
	V138.503z M554.245,157.045c0,4.313,0.855,7.499,2.567,9.56c1.71,2.06,3.794,3.089,6.252,3.089c2.362,0,4.325-0.945,5.892-2.836
	c1.566-1.891,2.349-4.994,2.349-9.308c0-4.024-0.808-7.011-2.421-8.963c-1.615-1.951-3.615-2.928-6-2.928
	c-2.482,0-4.542,0.958-6.181,2.874C555.065,150.448,554.245,153.287,554.245,157.045"/>
<path fill="#005AAA" d="M586.125,165.936l10.192-1.553c0.434,1.976,1.314,3.476,2.64,4.499c1.324,1.024,3.18,1.536,5.564,1.536
	c2.627,0,4.604-0.482,5.928-1.446c0.892-0.674,1.338-1.577,1.338-2.71c0-0.771-0.242-1.409-0.723-1.916
	c-0.506-0.481-1.639-0.927-3.397-1.337c-8.193-1.807-13.386-3.457-15.579-4.951c-3.036-2.073-4.553-4.952-4.553-8.639
	c0-3.325,1.312-6.12,3.939-8.385c2.626-2.265,6.698-3.398,12.216-3.398c5.253,0,9.157,0.856,11.711,2.566
	c2.554,1.712,4.313,4.242,5.277,7.591l-9.577,1.771c-0.411-1.494-1.188-2.638-2.332-3.435c-1.145-0.794-2.777-1.192-4.897-1.192
	c-2.676,0-4.591,0.374-5.747,1.122c-0.772,0.529-1.157,1.216-1.157,2.059c0,0.723,0.337,1.337,1.012,1.844
	c0.915,0.674,4.078,1.626,9.487,2.855c5.409,1.228,9.186,2.734,11.332,4.518c2.119,1.806,3.18,4.325,3.18,7.554
	c0,3.519-1.47,6.541-4.409,9.072c-2.941,2.529-7.289,3.795-13.049,3.795c-5.228,0-9.367-1.06-12.414-3.181
	C589.059,172.456,587.064,169.575,586.125,165.936"/>
<polygon fill="#005AAA" points="630.509,176.888 630.509,123.902 640.666,123.902 640.666,152.021 652.557,138.503 665.062,138.503 
	651.943,152.527 666.003,176.888 655.051,176.888 645.4,159.647 640.666,164.599 640.666,176.888 "/>
<path fill="#005AAA" d="M679.627,150.213l-9.216-1.662c1.035-3.71,2.819-6.457,5.349-8.241c2.53-1.783,6.289-2.675,11.277-2.675
	c4.53,0,7.903,0.536,10.12,1.609c2.216,1.073,3.777,2.434,4.681,4.084c0.903,1.65,1.355,4.68,1.355,9.091l-0.108,11.855
	c0,3.373,0.162,5.861,0.488,7.463c0.325,1.603,0.933,3.32,1.825,5.15h-10.048c-0.266-0.674-0.591-1.675-0.977-3
	c-0.168-0.602-0.289-0.999-0.36-1.192c-1.735,1.687-3.591,2.951-5.567,3.794c-1.975,0.844-4.084,1.266-6.325,1.266
	c-3.952,0-7.066-1.072-9.342-3.217c-2.278-2.145-3.417-4.855-3.417-8.132c0-2.169,0.518-4.103,1.555-5.801
	c1.035-1.699,2.488-3.001,4.355-3.903c1.867-0.905,4.559-1.693,8.078-2.368c4.747-0.891,8.036-1.723,9.867-2.494v-1.011
	c0-1.954-0.482-3.345-1.446-4.176c-0.963-0.831-2.783-1.247-5.457-1.247c-1.807,0-3.218,0.356-4.229,1.066
	C681.073,147.185,680.255,148.432,679.627,150.213 M693.218,158.455c-1.301,0.434-3.361,0.952-6.18,1.554
	c-2.82,0.602-4.663,1.193-5.531,1.771c-1.324,0.939-1.987,2.132-1.987,3.578c0,1.422,0.53,2.651,1.59,3.688
	c1.06,1.035,2.409,1.553,4.048,1.553c1.831,0,3.578-0.602,5.242-1.807c1.228-0.915,2.035-2.036,2.421-3.361
	c0.265-0.867,0.397-2.518,0.397-4.952V158.455z"/>
<path fill="#005AAA" d="M759.036,176.888v-5.747c-1.398,2.048-3.235,3.663-5.512,4.844c-2.278,1.18-4.68,1.771-7.211,1.771
	c-2.579,0-4.892-0.567-6.939-1.7c-2.049-1.132-3.53-2.722-4.445-4.771c-0.917-2.047-1.375-4.878-1.375-8.493v-24.288h10.157v17.638
	c0,5.398,0.187,8.704,0.56,9.921c0.373,1.218,1.054,2.18,2.042,2.891c0.988,0.712,2.241,1.067,3.759,1.067
	c1.735,0,3.289-0.476,4.663-1.428c1.373-0.951,2.313-2.132,2.819-3.542c0.506-1.409,0.759-4.861,0.759-10.355v-16.192h10.157v38.384
	H759.036z"/>
<path fill="#005AAA" d="M813.9,176.888h-10.156v-19.59c0-4.143-0.217-6.825-0.651-8.041c-0.433-1.217-1.138-2.163-2.113-2.838
	c-0.977-0.675-2.151-1.012-3.525-1.012c-1.759,0-3.337,0.482-4.734,1.445c-1.398,0.965-2.357,2.242-2.874,3.832
	c-0.518,1.591-0.777,4.53-0.777,8.82v17.384h-10.157v-38.384h9.434v5.638c3.348-4.337,7.566-6.506,12.65-6.506
	c2.241,0,4.288,0.404,6.145,1.211c1.855,0.808,3.258,1.837,4.21,3.09c0.952,1.253,1.615,2.676,1.988,4.266s0.56,3.867,0.56,6.831
	V176.888z"/>
<path fill="#005AAA" d="M824.203,123.901h10.156v9.397h-10.156V123.901z M824.203,138.503h10.156v38.384h-10.156V138.503z"/>
<path fill="#005AAA" d="M854.707,138.503v37.193c0,4.891-0.319,8.342-0.958,10.354c-0.639,2.012-1.868,3.584-3.687,4.717
	c-1.819,1.132-4.138,1.699-6.958,1.699c-1.012,0-2.102-0.091-3.271-0.271c-1.167-0.181-2.426-0.452-3.776-0.814l1.772-8.675
	c0.481,0.097,0.932,0.175,1.354,0.236c0.421,0.06,0.814,0.09,1.174,0.09c1.037,0,1.887-0.223,2.549-0.668
	c0.662-0.446,1.103-0.982,1.319-1.608c0.217-0.628,0.325-2.507,0.325-5.639v-36.614H854.707z M844.55,123.901h10.157v9.397H844.55
	V123.901z"/>
<path fill="#005AAA" d="M872.923,150.213l-9.216-1.662c1.034-3.71,2.818-6.457,5.349-8.241c2.53-1.783,6.289-2.675,11.277-2.675
	c4.529,0,7.902,0.536,10.12,1.609c2.216,1.073,3.776,2.434,4.681,4.084c0.903,1.65,1.354,4.68,1.354,9.091l-0.107,11.855
	c0,3.373,0.162,5.861,0.487,7.463s0.934,3.32,1.825,5.15h-10.048c-0.266-0.674-0.591-1.675-0.977-3
	c-0.168-0.602-0.289-0.999-0.36-1.192c-1.733,1.687-3.591,2.951-5.567,3.794c-1.975,0.844-4.082,1.266-6.324,1.266
	c-3.952,0-7.066-1.072-9.342-3.217c-2.278-2.145-3.416-4.855-3.416-8.132c0-2.169,0.517-4.103,1.554-5.801
	c1.035-1.699,2.488-3.001,4.354-3.903c1.867-0.905,4.56-1.693,8.079-2.368c4.746-0.891,8.036-1.723,9.866-2.494v-1.011
	c0-1.954-0.48-3.345-1.445-4.176c-0.964-0.831-2.783-1.247-5.458-1.247c-1.807,0-3.217,0.356-4.229,1.066
	C874.369,147.185,873.55,148.432,872.923,150.213 M886.513,158.455c-1.301,0.434-3.36,0.952-6.18,1.554
	c-2.819,0.602-4.663,1.193-5.531,1.771c-1.324,0.939-1.987,2.132-1.987,3.578c0,1.422,0.529,2.651,1.591,3.688
	c1.06,1.035,2.409,1.553,4.048,1.553c1.831,0,3.579-0.602,5.241-1.807c1.228-0.915,2.035-2.036,2.422-3.361
	c0.264-0.867,0.396-2.518,0.396-4.952V158.455z"/>
</svg>
