<?xml version="1.0" encoding="utf-8"?>
<!-- Generator: Adobe Illustrator 16.0.0, SVG Export Plug-In . SVG Version: 6.00 Build 0)  -->
<!DOCTYPE svg PUBLIC "-//W3C//DTD SVG 1.1//EN" "http://www.w3.org/Graphics/SVG/1.1/DTD/svg11.dtd">
<svg version="1.1" id="Layer_1" xmlns="http://www.w3.org/2000/svg" xmlns:xlink="http://www.w3.org/1999/xlink" x="0px" y="0px"
	 width="299.924px" height="299.925px" viewBox="0 0 299.924 299.925" enable-background="new 0 0 299.924 299.925"
	 xml:space="preserve">
<path fill="#005FAD" d="M202.144,187.622c-7.279,0-13.203,5.923-13.203,13.204v24.393h2.999v-24.393
	c0-5.627,4.579-10.204,10.204-10.204c5.627,0,10.205,4.577,10.205,10.204v24.393h3v-24.393
	C215.349,193.545,209.425,187.622,202.144,187.622 M149.894,187.622c-7.279,0-13.202,5.923-13.202,13.204v24.393h2.999v-24.393
	c0-5.627,4.576-10.204,10.203-10.204c5.628,0,10.205,4.577,10.205,10.204v24.393h2.998v-24.393
	C163.097,193.545,157.176,187.622,149.894,187.622 M97.646,187.622c-7.282,0-13.204,5.923-13.204,13.204v24.393h3v-24.393
	c0-5.627,4.575-10.204,10.204-10.204c5.627,0,10.203,4.577,10.203,10.204v24.393h3v-24.393
	C110.849,193.545,104.925,187.622,97.646,187.622 M132.429,157.476c0.997-0.078,1.999-0.128,2.999-0.192v-32.518h-2.999V157.476z
	 M153.023,146.053v10.793c2.88,0.038,5.749,0.112,8.6,0.256v-32.336h-23.196v32.332c2.853-0.144,5.721-0.217,8.6-0.254v-10.791
	c0-1.656,1.342-2.999,3-2.999C151.681,143.054,153.023,144.396,153.023,146.053 M152.892,130.91h3v5.999h-3V130.91z
	 M147.159,136.909h-2.999v-5.999h2.999V136.909z M164.622,157.291c1.001,0.063,2.003,0.119,3,0.195v-32.721h-3V157.291z
	 M141.226,115.767h-10.849v5.999h10.849V115.767z M137.479,111.269h-7.1v2.999h7.1V111.269z M146.474,114.268h7.1v-2.999h-7.1
	V114.268z M162.572,114.268h7.099v-2.999h-7.099V114.268z M158.824,121.766h10.848v-5.999h-10.848V121.766z M142.726,121.766h14.598
	v-5.999h-14.598V121.766z M140.713,84.932c-0.201-0.394-0.278-0.75-0.285-1.063l-2.251,2.251c0.228,0.271,1.041,1.079,2.378,0.645
	l0.87-0.856C141.119,85.585,140.878,85.256,140.713,84.932 M140.944,84.814c0.154,0.301,0.378,0.606,0.667,0.912l1.079-1.061v-1.799
	l-2.318-2.318c-0.01-0.01-0.205-0.193-0.417-0.193c-0.083,0-0.17,0.03-0.249,0.107c-0.228,0.228-0.021,0.55,0.067,0.666l0.269,0.266
	c0.008,0.009,0.009,0.021,0.018,0.03l1.157,1.155l-0.095,0.093C141.087,82.707,140.277,83.514,140.944,84.814 M139.346,80.701
	c0.003-0.146,0.048-0.292,0.178-0.422c0.366-0.365,0.834-0.104,1.031,0.084l2.395,2.396v0.997c0.617,0.101,1.238-0.075,1.703-0.488
	l-1.576-1.576l-0.013-0.001v-0.011l-4.016-4.016c-0.709,0.805-0.685,2.031,0.07,2.809L139.346,80.701z M137.707,83.725
	c0.159,0.16,0.437,0.16,0.594,0c0.08-0.079,0.123-0.185,0.123-0.296c0-0.107-0.041-0.21-0.118-0.289
	c-0.002-0.002-0.005-0.003-0.005-0.003l-1.116-1.118c-0.004-0.001-0.004-0.004-0.004-0.004c-0.08-0.08-0.182-0.121-0.291-0.121
	c-0.112,0-0.218,0.043-0.298,0.122c-0.079,0.08-0.122,0.187-0.122,0.298c0,0.113,0.043,0.217,0.122,0.297L137.707,83.725z
	 M137.519,84.512L137.519,84.512c0.08-0.078,0.123-0.184,0.123-0.296c0-0.113-0.043-0.219-0.123-0.297l-1.114-1.116
	c-0.084-0.081-0.191-0.121-0.299-0.121s-0.216,0.04-0.296,0.121c-0.079,0.08-0.125,0.185-0.125,0.299
	c0,0.11,0.046,0.215,0.125,0.295l1.115,1.115C137.089,84.676,137.354,84.676,137.519,84.512 M140.452,83.477l0.005,0.005
	c0.075-0.435,0.278-0.748,0.397-0.896l-0.631-0.63c-0.017,0.146-0.071,0.29-0.182,0.399c-0.134,0.135-0.309,0.2-0.482,0.2
	c-0.043,0-0.082-0.017-0.125-0.024c0.039,0.214-0.01,0.439-0.174,0.604h-0.002c-0.128,0.128-0.298,0.198-0.479,0.198
	c-0.037,0-0.072-0.005-0.107-0.01c0.006,0.034,0.01,0.07,0.01,0.106c0,0.18-0.069,0.353-0.197,0.48
	c-0.129,0.128-0.301,0.198-0.481,0.198c-0.038,0-0.077-0.005-0.114-0.011c0.007,0.039,0.012,0.079,0.012,0.119
	c0,0.18-0.07,0.352-0.2,0.48c-0.132,0.132-0.308,0.198-0.479,0.198c-0.175,0-0.348-0.066-0.481-0.198l-0.365-0.365l-0.118,0.117
	c-0.444,0.444-0.444,1.168,0,1.611c0.445,0.445,1.168,0.445,1.612,0L140.452,83.477z M137.369,81.833l1.116,1.114
	c0,0,0.003,0.007,0.006,0.008c0.16,0.151,0.428,0.151,0.585-0.005c0.164-0.163,0.164-0.431,0-0.596l-1.114-1.113
	c-0.083-0.081-0.19-0.123-0.298-0.123c-0.108,0-0.215,0.042-0.297,0.123c-0.161,0.16-0.161,0.421-0.006,0.586
	C137.364,81.828,137.367,81.832,137.369,81.833 M149.856,102.764c10.319,0,18.715-8.396,18.715-18.715V61.942H131.14v22.106
	C131.14,94.368,139.536,102.764,149.856,102.764 M132.64,63.442h34.431v20.606c0,9.492-7.724,17.216-17.214,17.216
	c-9.494,0-17.217-7.724-17.217-17.216V63.442z M158.637,68.423c-1.161-0.337-3.745-0.731-5.931,1.456l-9.296,9.303l-0.08,2.316
	l10.283-10.284C155.757,69.07,157.662,68.543,158.637,68.423 M151.019,90.308l-7.497-5.294l-2.688,2.688l10.23,10.231l12.96-12.962
	c-0.75-0.482-5.002-2.669-11.916,4.245L151.019,90.308z M139.265,82.173c0.163,0.164,0.429,0.164,0.593,0
	c0.08-0.08,0.123-0.185,0.123-0.297c0-0.102-0.04-0.191-0.104-0.27l-0.253-0.254c-0.013-0.013-0.027-0.03-0.04-0.049l-0.627-0.626
	l-0.003,0.001c-0.007-0.006-0.012-0.016-0.021-0.023l-0.189-0.191c-0.082-0.081-0.189-0.122-0.298-0.122
	c-0.107,0-0.215,0.041-0.297,0.122c-0.079,0.08-0.124,0.184-0.124,0.297c0,0.112,0.045,0.217,0.124,0.298L139.265,82.173z
	 M143.148,79.251l-2.226-0.077l2.153,2.151L143.148,79.251z M152.521,69.694c2.305-2.302,5.028-1.863,6.226-1.51
	c-1.112-0.955-2.302-1.443-3.525-1.409c-2.338,0.042-4.067,1.876-4.085,1.895l-10.24,10.242l2.334,0.082L152.521,69.694z
	 M255.166,149.963c0-58.011-47.194-105.205-105.204-105.205S44.758,91.952,44.758,149.963c0,58.01,47.194,105.203,105.204,105.203
	S255.166,207.973,255.166,149.963 M51.957,178.972c23.814-11.417,49.933-18.798,77.472-21.233v-4.521
	c-27.95,2.421-54.47,9.837-78.674,21.334c-0.368-1.486-0.707-2.984-1.01-4.495c24.544-11.528,51.396-18.953,79.684-21.356v-7.521
	c-28.677,2.363-55.934,9.728-80.917,21.191c-0.495-4.068-0.755-8.208-0.755-12.408c0-56.357,45.849-102.204,102.205-102.204
	c56.354,0,102.204,45.847,102.204,102.204c0,4.312-0.271,8.562-0.792,12.735c-24.922-11.534-52.124-18.979-80.753-21.441v7.528
	c28.229,2.502,55.021,9.995,79.496,21.589c-0.308,1.514-0.653,3.016-1.027,4.505c-24.134-11.559-50.582-19.05-78.469-21.575v4.521
	c27.47,2.537,53.512,9.991,77.251,21.466c-0.439,1.457-0.906,2.897-1.404,4.327c-29.272-14.251-62.135-22.274-96.881-22.274
	c-34.492,0-67.13,7.905-96.238,21.962C52.851,181.875,52.39,180.431,51.957,178.972 M56.674,191.696
	c-0.616-1.368-1.202-2.751-1.757-4.149c28.615-13.888,60.727-21.703,94.67-21.703c34.191,0,66.521,7.929,95.295,22.008
	c-0.56,1.396-1.145,2.78-1.764,4.146c-28.229-13.852-59.964-21.655-93.531-21.655C116.265,170.342,84.748,178.034,56.674,191.696
	 M219.847,224.468c-18.291,17.168-42.88,27.7-69.885,27.7c-27.07,0-51.714-10.584-70.019-27.826v-23.516
	c0-9.777,7.924-17.702,17.702-17.702c9.775,0,17.701,7.925,17.701,17.702v24.393h16.846v-24.393c0-9.777,7.926-17.702,17.701-17.702
	c9.778,0,17.703,7.925,17.703,17.702v24.393h16.846v-24.393c0-9.777,7.926-17.702,17.701-17.702c9.777,0,17.703,7.925,17.703,17.702
	V224.468z M149.962,0C67.14,0,0,67.141,0,149.963c0,82.821,67.14,149.962,149.962,149.962s149.962-67.141,149.962-149.962
	C299.924,67.141,232.784,0,149.962,0 M251.759,251.761c-27.19,27.19-63.343,42.166-101.797,42.166s-74.606-14.976-101.798-42.166
	C20.972,224.57,5.997,188.416,5.997,149.963c0-38.454,14.975-74.607,42.167-101.799c27.191-27.19,63.344-42.166,101.798-42.166
	s74.606,14.976,101.797,42.166c27.192,27.191,42.168,63.345,42.168,101.799C293.927,188.416,278.951,224.57,251.759,251.761
	 M70.399,72.313c3.363-3.493,4.517-7.523,4.228-11.604l-7.153-6.879l-8.343,8.673l4.432,4.261l3.311-3.442l0.774,0.743
	c-0.16,1.183-0.894,2.532-1.998,3.681c-2.489,2.589-6.135,2.424-8.615,0.036c-2.481-2.388-2.787-6.021-0.298-8.61
	c1.464-1.522,3.446-1.874,5.105-1.409l2.043-6.77c-3.476-0.979-7.92-0.527-11.898,3.609c-5.187,5.391-5.927,13.157-0.213,18.65
	C57.456,78.72,65.215,77.705,70.399,72.313 M117.271,43.17l-2.104-7.639l2.605-0.718l5.388,6.734l8.212-2.261l-6.641-7.234
	c1.637-1.45,3.428-4.287,2.298-8.391c-1.229-4.462-5.251-7.35-10.818-5.814l-12.708,3.499l6.559,23.81L117.271,43.17z
	 M116.756,24.148c1.214-0.335,2.571,0.137,2.925,1.423c0.365,1.319-0.562,2.419-1.775,2.754l-4.391,1.209l-1.149-4.177
	L116.756,24.148z M248.305,73.36c5.685-5.468,4.883-12.714-0.509-18.317l-7.649-7.951l-17.8,17.121l7.676,7.979
	C235.387,77.77,242.62,78.827,248.305,73.36 M240.635,57.001l2.49,2.587c2.773,2.883,2.319,5.991-0.084,8.301
	c-2.241,2.156-5.755,2.455-8.347-0.241l-2.466-2.561L240.635,57.001z M175.251,37.858l9.155,2.459l0.104,3.325l7.832,2.104
	l-2.39-26.215l-9.084-2.44l-15.205,21.489l7.831,2.103L175.251,37.858z M183.7,24.677l0.46,9.134l-5.437-1.46L183.7,24.677z
	 M175.993,259.432l-7.377,1.249l2.634,15.557c0.29,1.717-0.632,2.924-2.238,3.196c-1.24,0.209-2.431-0.152-3.327-0.563l-2.043,6.132
	c2.147,1.138,4.755,1.223,7.129,0.822c5.659-0.96,8.933-4.48,7.875-10.727L175.993,259.432z M249.042,204.276l-5.277,7.475
	l3.826,10.636l-7.563-5.34l-4.313,6.11l20.178,14.247l4.316-6.112l-5.597-3.95l-0.723-2.188l10.314,0.481l5.253-7.444l-16.418,0.331
	L249.042,204.276z M123.402,284.401l7.376,1.24l4.093-24.358l-7.377-1.24L123.402,284.401z M216.97,262.26l-1.648-2.683l9.369-5.758
	l-3.258-5.301l-9.368,5.758l-1.512-2.461l9.589-5.894l-3.257-5.298l-15.963,9.81l12.933,21.042l15.963-9.811l-3.258-5.3
	L216.97,262.26z M40.928,211.863c-6.157,4.445-6.913,12.256-2.446,18.442c4.466,6.187,12.117,7.924,18.274,3.48
	c6.155-4.445,6.912-12.256,2.446-18.44C54.734,209.159,47.084,207.42,40.928,211.863 M52.31,227.63
	c-2.793,2.017-6.38,1.728-8.483-1.183c-2.103-2.915-1.247-6.409,1.546-8.429c2.792-2.015,6.382-1.728,8.485,1.186
	C55.959,222.117,55.103,225.613,52.31,227.63 M90.493,252.121c1.701,0.98,3.7,3.073,4.747,5.559l6.108-2.589
	c-1.289-3.396-3.859-6.203-7.357-8.22c-5.869-3.386-10.79-1.821-12.881,1.804c-3.092,5.357,1.818,9.3,4.977,11.976
	c1.896,1.607,2.553,2.541,2.072,3.378c-0.48,0.832-1.877,0.585-3.096-0.119c-2.887-1.666-4.59-4.272-5.307-6.738l-6.143,2.87
	c1.093,3.368,3.428,6.51,7.984,9.136c5.741,3.313,10.811,2.603,13.529-2.115c2.851-4.938-1.787-8.979-4.965-11.626
	c-2.055-1.698-2.754-2.485-2.273-3.32C88.204,251.57,88.89,251.196,90.493,252.121 M17.905,150.704l7.499,7.498l7.498-7.498
	l-7.498-7.498L17.905,150.704z M274.535,143.206l-7.498,7.498l7.498,7.498l7.498-7.498L274.535,143.206z"/>
</svg>
