<?xml version="1.0" encoding="utf-8"?>
<!-- Generator: Adobe Illustrator 16.0.0, SVG Export Plug-In . SVG Version: 6.00 Build 0)  -->
<!DOCTYPE svg PUBLIC "-//W3C//DTD SVG 1.1//EN" "http://www.w3.org/Graphics/SVG/1.1/DTD/svg11.dtd">
<svg version="1.1" id="Layer_1" xmlns="http://www.w3.org/2000/svg" xmlns:xlink="http://www.w3.org/1999/xlink" x="0px" y="0px"
	 width="250.003px" height="280.307px" viewBox="0 0 250.003 280.307" enable-background="new 0 0 250.003 280.307"
	 xml:space="preserve">
<path fill="#005FAD" d="M14.465,217.833c0,0.052,0.031,0.099,0.094,0.139c1.948,0.975,2.924,2.655,2.924,5.04
	c0,2.01-0.685,3.529-2.053,4.555c-1.37,1.027-3.162,1.541-5.381,1.541H2.148c-0.353,0-0.528-0.176-0.528-0.528v-20.717
	c0-0.351,0.175-0.528,0.528-0.528H9.8c4.914,0,7.371,1.99,7.371,5.972c0,2.095-0.871,3.567-2.612,4.416
	C14.496,217.745,14.465,217.781,14.465,217.833 M6.004,211.286v4.789c0,0.125,0.063,0.188,0.188,0.188H9.8
	c0.974,0,1.731-0.229,2.27-0.685c0.539-0.456,0.809-1.078,0.809-1.867c0-0.808-0.27-1.446-0.809-1.913
	c-0.539-0.467-1.296-0.699-2.27-0.699H6.192C6.067,211.099,6.004,211.16,6.004,211.286 M12.288,224.582
	c0.539-0.487,0.809-1.155,0.809-2.006c0-0.85-0.27-1.518-0.809-2.006c-0.539-0.487-1.296-0.731-2.271-0.731H6.192
	c-0.125,0-0.188,0.062-0.188,0.186v5.101c0,0.125,0.063,0.186,0.188,0.186h3.857C11.001,225.312,11.749,225.068,12.288,224.582"/>
<path fill="#005FAD" d="M21.122,210.865c-0.498-0.487-0.748-1.114-0.748-1.882c0-0.766,0.25-1.395,0.748-1.882
	c0.497-0.487,1.139-0.73,1.928-0.73c0.808,0,1.457,0.238,1.944,0.714c0.488,0.478,0.731,1.11,0.731,1.898
	c0,0.788-0.243,1.42-0.731,1.898c-0.487,0.476-1.136,0.715-1.944,0.715C22.261,211.596,21.619,211.352,21.122,210.865
	 M20.873,228.579v-14.931c0-0.352,0.175-0.528,0.528-0.528h3.328c0.353,0,0.53,0.176,0.53,0.528v14.931
	c0,0.353-0.177,0.528-0.53,0.528H21.4C21.047,229.107,20.873,228.932,20.873,228.579"/>
<path fill="#005FAD" d="M33.252,229.356c0,0-0.606-0.415-1.819-1.244c-1.213-0.829-2.08-1.97-2.597-3.423
	c-0.355-1.036-0.53-2.259-0.53-3.669c0-1.389,0.175-2.593,0.53-3.608c0.497-1.41,1.357-2.52,2.581-3.328
	c1.224-0.809,2.664-1.213,4.323-1.213c1.658,0,3.116,0.415,4.371,1.244c1.253,0.829,2.089,1.877,2.502,3.142
	c0.126,0.29,0.209,0.611,0.249,0.964v0.062c0,0.27-0.154,0.436-0.465,0.497l-3.267,0.498l-0.155,0.032
	c-0.249,0-0.394-0.126-0.436-0.375l-0.093-0.434c-0.145-0.539-0.466-0.985-0.965-1.338c-0.497-0.353-1.087-0.528-1.772-0.528
	c-0.665,0-1.224,0.166-1.68,0.496c-0.456,0.333-0.777,0.789-0.964,1.37c-0.229,0.622-0.341,1.472-0.341,2.55
	c0,1.078,0.103,1.929,0.31,2.551c0.186,0.622,0.514,1.109,0.979,1.462c0.468,0.353,1.031,0.528,1.696,0.528
	c0.643,0,1.208-0.171,1.695-0.512c0.488-0.344,0.825-0.804,1.011-1.386l0.031-0.155c0.021-0.083,0.093-0.182,0.219-0.294
	c0.123-0.115,0.258-0.162,0.404-0.141l3.266,0.498c0.166,0.041,0.285,0.114,0.357,0.218c0.072,0.103,0.099,0.227,0.078,0.372
	c-0.042,0.333-0.094,0.571-0.157,0.715c-0.434,1.39-1.28,2.479-2.533,3.267c-1.256,0.789-2.702,1.182-4.34,1.182H33.252z"/>
<path fill="#005FAD" d="M45.911,210.865c-0.498-0.487-0.747-1.114-0.747-1.882c0-0.766,0.249-1.395,0.747-1.882
	c0.497-0.487,1.14-0.73,1.928-0.73c0.808,0,1.457,0.238,1.945,0.714c0.487,0.478,0.73,1.11,0.73,1.898
	c0,0.788-0.243,1.42-0.73,1.898c-0.488,0.476-1.137,0.715-1.945,0.715C47.051,211.596,46.408,211.352,45.911,210.865
	 M45.662,228.579v-14.931c0-0.352,0.176-0.528,0.528-0.528h3.328c0.353,0,0.53,0.176,0.53,0.528v14.931
	c0,0.353-0.177,0.528-0.53,0.528h-3.328C45.837,229.107,45.662,228.932,45.662,228.579"/>
<path fill="#005FAD" d="M53.5,228.579v-20.716c0-0.351,0.176-0.528,0.53-0.528h3.326c0.353,0,0.53,0.177,0.53,0.528v10.264
	c0,0.083,0.025,0.13,0.077,0.141c0.052,0.011,0.099-0.016,0.141-0.078l4.137-4.759c0.207-0.207,0.425-0.311,0.652-0.311h3.764
	c0.146,0,0.259,0.027,0.342,0.077c0.083,0.053,0.125,0.13,0.125,0.234c0,0.125-0.042,0.239-0.125,0.343l-3.826,4.788
	c-0.062,0.063-0.071,0.146-0.031,0.25l4.573,9.673l0.062,0.249c0,0.249-0.156,0.373-0.466,0.373h-3.516
	c-0.289,0-0.498-0.134-0.622-0.404l-3.016-7.123c-0.063-0.125-0.146-0.134-0.249-0.031l-1.929,2.458
	c-0.062,0.083-0.093,0.155-0.093,0.218v4.354c0,0.353-0.177,0.528-0.53,0.528H54.03C53.676,229.107,53.5,228.932,53.5,228.579"/>
<path fill="#005FAD" d="M70.141,228.579v-20.716c0-0.351,0.175-0.528,0.528-0.528h3.328c0.353,0,0.529,0.177,0.529,0.528v20.716
	c0,0.353-0.176,0.528-0.529,0.528h-3.328C70.315,229.107,70.141,228.932,70.141,228.579"/>
<path fill="#005FAD" d="M78.321,210.865c-0.499-0.487-0.748-1.114-0.748-1.882c0-0.766,0.249-1.395,0.748-1.882
	c0.496-0.487,1.139-0.73,1.927-0.73c0.808,0,1.457,0.238,1.945,0.714c0.487,0.478,0.73,1.11,0.73,1.898
	c0,0.788-0.243,1.42-0.73,1.898c-0.488,0.476-1.137,0.715-1.945,0.715C79.46,211.596,78.817,211.352,78.321,210.865 M78.071,228.579
	v-14.931c0-0.352,0.176-0.528,0.528-0.528h3.329c0.352,0,0.529,0.176,0.529,0.528v14.931c0,0.353-0.177,0.528-0.529,0.528h-3.329
	C78.247,229.107,78.071,228.932,78.071,228.579"/>
<path fill="#005FAD" d="M88.646,228.734c-1.038-0.393-1.835-0.943-2.396-1.648c-0.56-0.706-0.838-1.503-0.838-2.396v-0.156
	c0-0.352,0.175-0.528,0.527-0.528h3.143c0.352,0,0.528,0.063,0.528,0.186v0.219c0,0.455,0.249,0.844,0.745,1.165
	c0.499,0.322,1.132,0.483,1.898,0.483c0.705,0,1.276-0.135,1.711-0.404c0.436-0.27,0.654-0.622,0.654-1.058
	c0-0.373-0.186-0.654-0.561-0.84c-0.373-0.187-0.984-0.384-1.835-0.591c-1.015-0.269-1.772-0.507-2.271-0.716
	c-1.347-0.456-2.414-1.015-3.203-1.678c-0.788-0.664-1.181-1.619-1.181-2.863c0-1.534,0.6-2.752,1.803-3.654
	c1.202-0.901,2.779-1.353,4.728-1.353c1.327,0,2.493,0.213,3.499,0.638c1.007,0.424,1.784,1.022,2.334,1.788
	c0.548,0.768,0.824,1.639,0.824,2.612c0,0.105-0.047,0.193-0.141,0.265c-0.093,0.073-0.222,0.11-0.389,0.11h-3.048
	c-0.352,0-0.528-0.063-0.528-0.188v-0.187c0-0.456-0.229-0.84-0.685-1.15c-0.456-0.312-1.068-0.467-1.835-0.467
	c-0.684,0-1.249,0.125-1.695,0.373c-0.447,0.249-0.669,0.592-0.669,1.026c0,0.416,0.213,0.727,0.638,0.934
	c0.424,0.207,1.125,0.425,2.099,0.654c0.602,0.124,1.182,0.278,1.743,0.465c1.492,0.436,2.664,0.997,3.513,1.68
	c0.851,0.685,1.276,1.68,1.276,2.987c0,1.534-0.611,2.731-1.835,3.591c-1.224,0.861-2.862,1.292-4.914,1.292
	C90.895,229.325,89.682,229.128,88.646,228.734"/>
<path fill="#005FAD" d="M110.169,216.635h-2.799c-0.125,0-0.187,0.061-0.187,0.187v6.437c0,0.685,0.139,1.188,0.42,1.509
	c0.279,0.321,0.73,0.483,1.352,0.483h0.871c0.353,0,0.529,0.175,0.529,0.528v2.675c0,0.332-0.176,0.518-0.529,0.559
	c-0.788,0.042-1.358,0.063-1.711,0.063c-1.72,0-3.007-0.29-3.856-0.872c-0.851-0.579-1.287-1.657-1.307-3.234v-8.148
	c0-0.126-0.063-0.187-0.188-0.187h-1.586c-0.352,0-0.53-0.177-0.53-0.53v-2.457c0-0.352,0.178-0.528,0.53-0.528h1.586
	c0.124,0,0.188-0.063,0.188-0.187v-3.514c0-0.353,0.175-0.53,0.529-0.53h3.172c0.353,0,0.53,0.177,0.53,0.53v3.514
	c0,0.124,0.062,0.187,0.187,0.187h2.799c0.353,0,0.528,0.176,0.528,0.528v2.457C110.697,216.458,110.522,216.635,110.169,216.635"/>
<path fill="#005FAD" d="M113.841,210.865c-0.498-0.487-0.747-1.114-0.747-1.882c0-0.766,0.249-1.395,0.747-1.882
	c0.497-0.487,1.14-0.73,1.928-0.73c0.808,0,1.457,0.238,1.945,0.714c0.487,0.478,0.73,1.11,0.73,1.898
	c0,0.788-0.243,1.42-0.73,1.898c-0.488,0.476-1.137,0.715-1.945,0.715C114.981,211.596,114.338,211.352,113.841,210.865
	 M113.592,228.579v-14.931c0-0.352,0.176-0.528,0.528-0.528h3.328c0.353,0,0.53,0.176,0.53,0.528v14.931
	c0,0.353-0.177,0.528-0.53,0.528h-3.328C113.768,229.107,113.592,228.932,113.592,228.579"/>
<path fill="#005FAD" d="M125.97,229.357c0,0-0.606-0.415-1.82-1.245c-1.213-0.829-2.079-1.969-2.596-3.422
	c-0.354-1.036-0.53-2.26-0.53-3.67c0-1.389,0.176-2.592,0.53-3.607c0.497-1.411,1.357-2.52,2.581-3.329
	c1.224-0.809,2.664-1.213,4.323-1.213c1.658,0,3.115,0.416,4.37,1.244c1.254,0.829,2.089,1.878,2.503,3.142
	c0.125,0.29,0.208,0.612,0.249,0.964v0.063c0,0.269-0.155,0.435-0.465,0.496l-3.268,0.499l-0.155,0.031
	c-0.249,0-0.394-0.125-0.436-0.374l-0.093-0.434c-0.146-0.539-0.467-0.986-0.965-1.339c-0.497-0.352-1.088-0.528-1.772-0.528
	c-0.665,0-1.224,0.166-1.68,0.497c-0.456,0.332-0.777,0.789-0.963,1.37c-0.23,0.622-0.343,1.471-0.343,2.549
	c0,1.079,0.104,1.929,0.311,2.552c0.187,0.622,0.514,1.109,0.979,1.462c0.467,0.352,1.03,0.527,1.695,0.527
	c0.643,0,1.208-0.17,1.695-0.512c0.487-0.343,0.824-0.804,1.011-1.385l0.031-0.155c0.021-0.083,0.093-0.182,0.218-0.295
	c0.124-0.114,0.259-0.161,0.404-0.141l3.266,0.499c0.166,0.04,0.285,0.114,0.357,0.217s0.099,0.227,0.078,0.373
	c-0.042,0.332-0.094,0.571-0.156,0.715c-0.434,1.39-1.28,2.479-2.534,3.267c-1.255,0.788-2.701,1.182-4.339,1.182H125.97z
	 M125.846,210.942l-1.96-2.985c-0.063-0.124-0.093-0.229-0.093-0.312c0-0.103,0.036-0.186,0.108-0.247
	c0.072-0.063,0.182-0.095,0.328-0.095h2.239c0.248,0,0.456,0.115,0.622,0.342l1.15,1.774c0.041,0.063,0.088,0.092,0.14,0.092
	s0.088-0.029,0.109-0.092l1.15-1.774c0.166-0.227,0.373-0.342,0.622-0.342h2.208c0.146,0,0.26,0.032,0.343,0.095
	c0.082,0.061,0.124,0.144,0.124,0.247c0,0.105-0.042,0.209-0.124,0.312l-2.021,2.985c-0.166,0.229-0.374,0.343-0.622,0.343h-3.701
	C126.219,211.285,126.01,211.171,125.846,210.942"/>
<path fill="#005FAD" d="M138.132,228.579v-20.716c0-0.351,0.175-0.528,0.529-0.528h3.326c0.354,0,0.53,0.177,0.53,0.528v10.264
	c0,0.083,0.025,0.13,0.077,0.141s0.099-0.016,0.141-0.078l4.137-4.759c0.207-0.207,0.425-0.311,0.652-0.311h3.764
	c0.146,0,0.259,0.027,0.342,0.077c0.083,0.053,0.125,0.13,0.125,0.234c0,0.125-0.042,0.239-0.125,0.343l-3.825,4.788
	c-0.063,0.063-0.072,0.146-0.031,0.25l4.572,9.673l0.063,0.249c0,0.249-0.157,0.373-0.468,0.373h-3.515
	c-0.29,0-0.498-0.134-0.622-0.404l-3.017-7.123c-0.063-0.125-0.146-0.134-0.249-0.031l-1.929,2.458
	c-0.062,0.083-0.093,0.155-0.093,0.218v4.354c0,0.353-0.177,0.528-0.53,0.528h-3.326
	C138.307,229.107,138.132,228.932,138.132,228.579"/>
<path fill="#005FAD" d="M164.134,224.224c0.125-0.146,0.26-0.217,0.404-0.217c0.125,0,0.238,0.051,0.343,0.154l1.772,1.712
	c0.124,0.123,0.187,0.249,0.187,0.373c0,0.145-0.042,0.269-0.124,0.372c-0.685,0.852-1.561,1.521-2.628,2.006
	c-1.068,0.488-2.234,0.732-3.499,0.732c-1.909,0-3.49-0.487-4.743-1.462c-1.256-0.974-2.101-2.311-2.536-4.013
	c-0.249-0.912-0.373-1.876-0.373-2.891c0-1.204,0.113-2.219,0.342-3.05c0.415-1.534,1.249-2.767,2.504-3.701
	c1.254-0.933,2.743-1.399,4.464-1.399c2.032,0,3.645,0.601,4.836,1.803c1.192,1.204,1.965,2.893,2.317,5.071
	c0.083,0.683,0.146,1.442,0.188,2.271c0,0.353-0.177,0.528-0.529,0.528h-9.548c-0.126,0-0.188,0.062-0.188,0.186
	c0.063,0.436,0.135,0.757,0.218,0.964c0.209,0.644,0.617,1.136,1.229,1.478c0.613,0.343,1.354,0.514,2.226,0.514
	C162.362,225.592,163.409,225.116,164.134,224.224 M158.521,217.116c-0.447,0.323-0.752,0.772-0.919,1.354
	c-0.103,0.394-0.166,0.653-0.187,0.777c-0.02,0.124,0.032,0.187,0.155,0.187h5.289c0.104,0,0.155-0.041,0.155-0.124
	c0-0.229-0.042-0.467-0.125-0.716c-0.187-0.601-0.508-1.078-0.964-1.431s-1.038-0.528-1.741-0.528
	C159.521,216.635,158.966,216.795,158.521,217.116"/>
<path fill="#005FAD" d="M179.251,228.734c-1.037-0.393-1.835-0.943-2.396-1.648c-0.56-0.706-0.838-1.503-0.838-2.396v-0.156
	c0-0.352,0.176-0.528,0.528-0.528h3.142c0.353,0,0.528,0.063,0.528,0.186v0.219c0,0.455,0.249,0.844,0.746,1.165
	c0.498,0.322,1.131,0.483,1.897,0.483c0.705,0,1.275-0.135,1.711-0.404c0.436-0.27,0.653-0.622,0.653-1.058
	c0-0.373-0.187-0.654-0.561-0.84c-0.373-0.187-0.984-0.384-1.835-0.591c-1.016-0.269-1.772-0.507-2.271-0.716
	c-1.348-0.456-2.415-1.015-3.202-1.678c-0.79-0.664-1.183-1.619-1.183-2.863c0-1.534,0.601-2.752,1.804-3.654
	c1.201-0.901,2.778-1.353,4.728-1.353c1.327,0,2.493,0.213,3.499,0.638c1.006,0.424,1.783,1.022,2.333,1.788
	c0.549,0.768,0.825,1.639,0.825,2.612c0,0.105-0.047,0.193-0.142,0.265c-0.093,0.073-0.223,0.11-0.389,0.11h-3.048
	c-0.353,0-0.528-0.063-0.528-0.188v-0.187c0-0.456-0.229-0.84-0.685-1.15c-0.456-0.312-1.068-0.467-1.835-0.467
	c-0.685,0-1.249,0.125-1.695,0.373c-0.447,0.249-0.669,0.592-0.669,1.026c0,0.416,0.213,0.727,0.638,0.934s1.125,0.425,2.1,0.654
	c0.602,0.124,1.182,0.278,1.742,0.465c1.492,0.436,2.664,0.997,3.514,1.68c0.851,0.685,1.275,1.68,1.275,2.987
	c0,1.534-0.611,2.731-1.835,3.591c-1.224,0.861-2.861,1.292-4.914,1.292C181.5,229.325,180.288,229.128,179.251,228.734"/>
<path fill="#005FAD" d="M200.775,216.635h-2.799c-0.125,0-0.187,0.061-0.187,0.187v6.437c0,0.685,0.14,1.188,0.42,1.509
	c0.279,0.321,0.73,0.483,1.353,0.483h0.871c0.353,0,0.528,0.175,0.528,0.528v2.675c0,0.332-0.176,0.518-0.528,0.559
	c-0.788,0.042-1.358,0.063-1.711,0.063c-1.721,0-3.008-0.29-3.856-0.872c-0.852-0.579-1.287-1.657-1.308-3.234v-8.148
	c0-0.126-0.063-0.187-0.187-0.187h-1.585c-0.354,0-0.531-0.177-0.531-0.53v-2.457c0-0.352,0.178-0.528,0.531-0.528h1.585
	c0.124,0,0.187-0.063,0.187-0.187v-3.514c0-0.353,0.176-0.53,0.529-0.53h3.173c0.353,0,0.529,0.177,0.529,0.53v3.514
	c0,0.124,0.062,0.187,0.187,0.187h2.799c0.353,0,0.528,0.176,0.528,0.528v2.457C201.303,216.458,201.127,216.635,200.775,216.635"/>
<path fill="#005FAD" d="M213.961,213.571c1.058,0.466,1.882,1.103,2.473,1.912c0.59,0.808,0.887,1.711,0.887,2.706v10.39
	c0,0.352-0.177,0.528-0.527,0.528h-3.329c-0.354,0-0.529-0.176-0.529-0.528v-0.748c0-0.083-0.021-0.128-0.062-0.139
	c-0.042-0.011-0.094,0.015-0.156,0.078c-0.953,1.056-2.374,1.586-4.261,1.586c-1.598,0-2.882-0.393-3.856-1.182
	c-0.975-0.788-1.462-1.949-1.462-3.485c0-1.595,0.56-2.835,1.679-3.715c1.12-0.882,2.717-1.323,4.79-1.323h3.142
	c0.125,0,0.187-0.063,0.187-0.186v-0.653c0-0.686-0.212-1.218-0.638-1.602c-0.425-0.384-1.041-0.575-1.851-0.575
	c-0.621,0-1.135,0.103-1.539,0.31c-0.404,0.208-0.68,0.498-0.824,0.871c-0.124,0.29-0.332,0.425-0.622,0.405l-3.452-0.437
	c-0.166-0.02-0.296-0.067-0.389-0.14c-0.094-0.072-0.13-0.17-0.109-0.296c0.104-0.849,0.462-1.617,1.073-2.302
	c0.611-0.683,1.42-1.217,2.426-1.601c1.006-0.383,2.12-0.575,3.344-0.575C211.702,212.872,212.906,213.104,213.961,213.571
	 M212.002,225.375c0.622-0.476,0.933-1.089,0.933-1.835v-1.089c0-0.124-0.062-0.186-0.187-0.186h-2.208
	c-0.934,0-1.669,0.176-2.208,0.529s-0.81,0.85-0.81,1.492c0,0.562,0.203,1.002,0.607,1.322c0.404,0.322,0.937,0.483,1.601,0.483
	C210.624,226.09,211.38,225.853,212.002,225.375"/>
<path fill="#005FAD" d="M219.498,228.579V225.5c0-0.249,0.083-0.467,0.249-0.653l6.906-7.559c0.041-0.062,0.057-0.114,0.046-0.156
	c-0.01-0.041-0.057-0.061-0.139-0.061h-6.346c-0.353,0-0.529-0.178-0.529-0.53v-2.893c0-0.352,0.177-0.528,0.529-0.528h11.321
	c0.353,0,0.528,0.176,0.528,0.528v3.048c0,0.249-0.083,0.467-0.249,0.654l-7.122,7.558c-0.043,0.062-0.059,0.114-0.047,0.156
	c0.011,0.041,0.058,0.061,0.141,0.061h6.904c0.353,0,0.528,0.178,0.528,0.53v2.924c0,0.353-0.176,0.528-0.528,0.528h-11.663
	C219.675,229.107,219.498,228.932,219.498,228.579"/>
<path fill="#005FAD" d="M245.532,224.224c0.125-0.146,0.26-0.217,0.404-0.217c0.125,0,0.238,0.051,0.343,0.154l1.772,1.712
	c0.124,0.123,0.187,0.249,0.187,0.373c0,0.145-0.042,0.269-0.124,0.372c-0.685,0.852-1.561,1.521-2.628,2.006
	c-1.068,0.488-2.234,0.732-3.499,0.732c-1.909,0-3.49-0.487-4.743-1.462c-1.256-0.974-2.101-2.311-2.536-4.013
	c-0.249-0.912-0.373-1.876-0.373-2.891c0-1.204,0.113-2.219,0.342-3.05c0.415-1.534,1.249-2.767,2.504-3.701
	c1.254-0.933,2.743-1.399,4.463-1.399c2.033,0,3.646,0.601,4.837,1.803c1.192,1.204,1.965,2.893,2.317,5.071
	c0.083,0.683,0.146,1.442,0.187,2.271c0,0.353-0.176,0.528-0.528,0.528h-9.548c-0.126,0-0.188,0.062-0.188,0.186
	c0.063,0.436,0.135,0.757,0.218,0.964c0.209,0.644,0.617,1.136,1.229,1.478c0.613,0.343,1.354,0.514,2.226,0.514
	C243.759,225.592,244.806,225.116,245.532,224.224 M239.918,217.116c-0.447,0.323-0.753,0.772-0.919,1.354
	c-0.104,0.394-0.166,0.653-0.187,0.777c-0.02,0.124,0.032,0.187,0.155,0.187h5.289c0.104,0,0.155-0.041,0.155-0.124
	c0-0.229-0.042-0.467-0.126-0.716c-0.186-0.601-0.507-1.078-0.963-1.431s-1.038-0.528-1.741-0.528
	C240.917,216.635,240.363,216.795,239.918,217.116"/>
<path fill="#005FAD" d="M4.461,258.389c-1.414-0.746-2.511-1.799-3.291-3.155C0.39,253.876,0,252.315,0,250.551v-6.414
	c0-1.765,0.39-3.319,1.17-4.665c0.78-1.346,1.877-2.392,3.291-3.139c1.413-0.746,3.048-1.119,4.903-1.119
	c1.81,0,3.427,0.356,4.852,1.069c1.426,0.711,2.527,1.68,3.308,2.9c0.78,1.223,1.17,2.556,1.17,4.004
	c0,0.362-0.214,0.544-0.644,0.544h-5.055c-0.431,0-0.646-0.056-0.646-0.171v-0.135c0-0.747-0.266-1.391-0.797-1.935
	c-0.531-0.542-1.26-0.813-2.188-0.813c-0.905,0-1.63,0.299-2.172,0.899c-0.542,0.599-0.814,1.396-0.814,2.392v6.786
	c0,0.973,0.311,1.766,0.933,2.374c0.623,0.612,1.397,0.917,2.324,0.917c0.837,0,1.522-0.23,2.053-0.694
	c0.531-0.465,0.798-1.104,0.798-1.917v-0.34c0-0.18-0.091-0.271-0.272-0.271H9.466c-0.431,0-0.646-0.215-0.646-0.644v-3.802
	c0-0.429,0.215-0.644,0.646-0.644h8.584c0.43,0,0.644,0.215,0.644,0.644v4.513c0,1.676-0.39,3.168-1.17,4.48
	c-0.781,1.312-1.877,2.331-3.291,3.053c-1.414,0.725-3.037,1.086-4.869,1.086C7.509,259.508,5.874,259.135,4.461,258.389"/>
<path fill="#005FAD" d="M32.811,258.763l-3.665-8.45c-0.046-0.135-0.159-0.203-0.339-0.203h-1.223c-0.18,0-0.271,0.09-0.271,0.273
	v8.21c0,0.43-0.214,0.645-0.644,0.645h-5.09c-0.431,0-0.645-0.215-0.645-0.645v-22.463c0-0.43,0.214-0.644,0.645-0.644h10.145
	c1.539,0,2.89,0.317,4.056,0.95c1.164,0.633,2.07,1.521,2.714,2.664c0.644,1.142,0.967,2.46,0.967,3.952
	c0,1.471-0.356,2.761-1.069,3.869s-1.702,1.934-2.97,2.477c-0.158,0.068-0.203,0.18-0.134,0.339l4.138,8.754
	c0.046,0.09,0.069,0.205,0.069,0.339c0,0.272-0.182,0.408-0.543,0.408h-5.396C33.194,259.237,32.947,259.078,32.811,258.763
	 M27.313,241.219v3.767c0,0.18,0.091,0.271,0.271,0.271h3.089c0.724,0,1.311-0.197,1.765-0.594c0.451-0.395,0.678-0.91,0.678-1.543
	c0-0.657-0.227-1.182-0.678-1.578c-0.454-0.395-1.041-0.594-1.765-0.594h-3.089C27.404,240.948,27.313,241.039,27.313,241.219"/>
<path fill="#005FAD" d="M57.104,258.695l-0.678-2.444c-0.046-0.158-0.148-0.238-0.306-0.238h-7.058c-0.158,0-0.26,0.08-0.305,0.238
	l-0.679,2.444c-0.091,0.362-0.328,0.542-0.711,0.542H41.87c-0.228,0-0.391-0.068-0.493-0.203c-0.102-0.137-0.119-0.317-0.051-0.543
	l7.058-22.464c0.113-0.36,0.351-0.542,0.713-0.542h6.989c0.362,0,0.6,0.182,0.713,0.542l7.058,22.464
	c0.022,0.066,0.034,0.146,0.034,0.237c0,0.34-0.193,0.509-0.577,0.509h-5.497C57.432,259.237,57.195,259.058,57.104,258.695
	 M50.25,250.889c0,0.16,0.079,0.238,0.238,0.238h4.208c0.089,0,0.157-0.028,0.203-0.084c0.044-0.057,0.055-0.13,0.034-0.221
	l-2.173-7.839c-0.022-0.113-0.073-0.169-0.152-0.169c-0.08,0-0.141,0.056-0.186,0.169l-2.172,7.839V250.889z"/>
<path fill="#005FAD" d="M66.028,258.593v-22.464c0-0.429,0.214-0.644,0.645-0.644h8.584c1.832,0,3.456,0.317,4.869,0.95
	c1.414,0.633,2.506,1.528,3.275,2.681c0.768,1.154,1.153,2.489,1.153,4.004v8.483c0,1.515-0.385,2.85-1.153,4.003
	c-0.769,1.152-1.861,2.049-3.275,2.682c-1.413,0.632-3.037,0.949-4.869,0.949h-8.584C66.242,259.237,66.028,259.022,66.028,258.593
	 M72.678,253.774h2.817c0.768,0,1.403-0.3,1.9-0.899c0.498-0.599,0.758-1.385,0.78-2.358v-6.311c0-0.973-0.249-1.76-0.746-2.358
	c-0.498-0.601-1.153-0.9-1.968-0.9h-2.783c-0.18,0-0.271,0.091-0.271,0.271v12.284C72.407,253.683,72.498,253.774,72.678,253.774"/>
<path fill="#005FAD" d="M100.673,258.695l-0.678-2.444c-0.046-0.158-0.148-0.238-0.306-0.238h-7.058c-0.158,0-0.26,0.08-0.306,0.238
	l-0.678,2.444c-0.091,0.362-0.328,0.542-0.711,0.542h-5.498c-0.227,0-0.39-0.068-0.492-0.203c-0.102-0.137-0.119-0.317-0.051-0.543
	l7.058-22.464c0.113-0.36,0.35-0.542,0.713-0.542h6.988c0.363,0,0.601,0.182,0.714,0.542l7.057,22.464
	c0.022,0.066,0.035,0.146,0.035,0.237c0,0.34-0.193,0.509-0.577,0.509h-5.497C101,259.237,100.764,259.058,100.673,258.695
	 M93.819,250.889c0,0.16,0.078,0.238,0.238,0.238h4.208c0.089,0,0.157-0.028,0.203-0.084c0.044-0.057,0.055-0.13,0.033-0.221
	l-2.172-7.839c-0.022-0.113-0.073-0.169-0.152-0.169c-0.08,0-0.141,0.056-0.186,0.169l-2.172,7.839V250.889z"/>
<path fill="#005FAD" d="M120.605,258.507c-1.437-0.758-2.55-1.82-3.342-3.189c-0.792-1.368-1.187-2.957-1.187-4.767v-6.379
	c0-1.765,0.395-3.325,1.187-4.682c0.792-1.358,1.905-2.409,3.342-3.157c1.437-0.746,3.094-1.118,4.971-1.118
	c1.9,0,3.568,0.372,5.005,1.118c1.438,0.748,2.552,1.799,3.343,3.157c0.791,1.357,1.188,2.917,1.188,4.682v6.379
	c0,1.81-0.396,3.398-1.188,4.767c-0.791,1.369-1.905,2.432-3.343,3.189c-1.437,0.759-3.104,1.137-5.005,1.137
	C123.7,259.644,122.042,259.266,120.605,258.507 M127.868,253.247c0.577-0.621,0.865-1.452,0.865-2.493v-6.651
	c0-1.04-0.288-1.872-0.865-2.494s-1.34-0.933-2.291-0.933c-0.928,0-1.678,0.311-2.255,0.933c-0.578,0.622-0.867,1.454-0.867,2.494
	v6.651c0,1.041,0.289,1.872,0.867,2.493c0.577,0.622,1.327,0.936,2.255,0.936C126.528,254.183,127.291,253.869,127.868,253.247"/>
<path fill="#005FAD" d="M141.424,258.575c-1.402-0.621-2.488-1.511-3.258-2.663c-0.77-1.153-1.153-2.488-1.153-4.004v-0.34
	c0-0.429,0.215-0.644,0.644-0.644h4.988c0.43,0,0.646,0.113,0.646,0.34v0.373c0,0.61,0.327,1.165,0.984,1.663
	c0.655,0.497,1.48,0.746,2.476,0.746c0.837,0,1.438-0.176,1.799-0.527c0.362-0.349,0.543-0.74,0.543-1.171
	c0-0.497-0.227-0.869-0.679-1.118c-0.453-0.249-1.277-0.555-2.477-0.917l-0.983-0.271c-2.239-0.678-4.118-1.583-5.634-2.714
	s-2.272-2.771-2.272-4.921c0-1.424,0.384-2.685,1.153-3.783c0.768-1.096,1.826-1.94,3.172-2.527c1.346-0.589,2.856-0.882,4.53-0.882
	c1.765,0,3.364,0.327,4.802,0.984c1.437,0.655,2.566,1.582,3.393,2.781c0.825,1.199,1.239,2.569,1.239,4.106v0.169
	c0,0.431-0.216,0.646-0.646,0.646h-4.988c-0.429,0-0.644-0.091-0.644-0.271v-0.273c0-0.678-0.306-1.295-0.917-1.849
	c-0.611-0.554-1.437-0.831-2.476-0.831c-0.726,0-1.296,0.148-1.715,0.441c-0.418,0.294-0.628,0.702-0.628,1.222
	c0,0.407,0.153,0.752,0.459,1.034c0.306,0.284,0.774,0.555,1.407,0.815c0.632,0.26,1.606,0.594,2.919,1.001
	c0.181,0.068,0.979,0.311,2.392,0.729c1.414,0.418,2.597,1.177,3.546,2.274c0.95,1.097,1.425,2.425,1.425,3.987
	c0,1.471-0.384,2.76-1.153,3.869c-0.77,1.106-1.849,1.962-3.24,2.56c-1.392,0.601-2.992,0.9-4.802,0.9
	C144.444,259.509,142.827,259.197,141.424,258.575"/>
<path fill="#005FAD" d="M157.709,258.594V236.13c0-0.43,0.214-0.644,0.646-0.644h5.09c0.429,0,0.644,0.214,0.644,0.644v22.464
	c0,0.428-0.215,0.643-0.644,0.643h-5.09C157.923,259.236,157.709,259.021,157.709,258.594 M170.214,258.49
	c-1.392-0.678-2.473-1.634-3.241-2.866c-0.77-1.234-1.153-2.652-1.153-4.259v-0.983c0-0.43,0.215-0.646,0.645-0.646h5.09
	c0.43,0,0.644,0.216,0.644,0.646v0.949c0,0.815,0.261,1.471,0.78,1.969c0.521,0.497,1.21,0.746,2.07,0.746
	c0.883,0,1.596-0.249,2.138-0.746c0.544-0.498,0.814-1.154,0.814-1.969V236.13c0-0.43,0.215-0.644,0.645-0.644h5.057
	c0.43,0,0.645,0.214,0.645,0.644v15.235c0,1.607-0.385,3.025-1.153,4.259c-0.77,1.232-1.862,2.188-3.275,2.866
	c-1.414,0.68-3.037,1.019-4.869,1.019S171.604,259.17,170.214,258.49"/>
<path fill="#005FAD" d="M203.551,240.948h-9.908c-0.18,0-0.271,0.091-0.271,0.271v2.987c0,0.18,0.092,0.271,0.271,0.271h6.041
	c0.429,0,0.645,0.215,0.645,0.644v4.14c0,0.429-0.216,0.644-0.645,0.644h-6.041c-0.18,0-0.271,0.091-0.271,0.272v3.326
	c0,0.181,0.092,0.271,0.271,0.271h9.908c0.43,0,0.646,0.215,0.646,0.644v4.175c0,0.43-0.216,0.645-0.646,0.645h-15.913
	c-0.431,0-0.646-0.215-0.646-0.645v-22.463c0-0.43,0.215-0.644,0.646-0.644h15.913c0.43,0,0.646,0.214,0.646,0.644v4.174
	C204.197,240.733,203.981,240.948,203.551,240.948"/>
<path fill="#005FAD" d="M206.333,258.593v-22.463c0-0.43,0.214-0.644,0.646-0.644h5.089c0.429,0,0.644,0.214,0.644,0.644v7.771
	c0,0.113,0.039,0.182,0.119,0.204c0.078,0.021,0.152-0.011,0.221-0.102l5.734-8.11c0.182-0.272,0.441-0.407,0.78-0.407h5.769
	c0.34,0,0.509,0.124,0.509,0.373c0,0.158-0.045,0.295-0.136,0.407l-6.854,9.569c-0.091,0.136-0.103,0.26-0.034,0.373l7.193,12.249
	c0.068,0.137,0.102,0.261,0.102,0.373c0,0.272-0.181,0.408-0.542,0.408h-5.735c-0.339,0-0.588-0.148-0.746-0.441l-4.581-8.143
	c-0.045-0.091-0.107-0.137-0.187-0.137s-0.143,0.046-0.187,0.137l-1.324,2.001c-0.067,0.136-0.102,0.249-0.102,0.339v5.6
	c0,0.43-0.215,0.645-0.644,0.645h-5.089C206.547,259.237,206.333,259.022,206.333,258.593"/>
<path fill="#005FAD" d="M243.216,258.695l-0.678-2.444c-0.046-0.158-0.147-0.238-0.306-0.238h-7.059c-0.158,0-0.26,0.08-0.306,0.238
	l-0.678,2.444c-0.091,0.362-0.328,0.542-0.712,0.542h-5.497c-0.228,0-0.391-0.068-0.492-0.203c-0.102-0.137-0.119-0.317-0.052-0.543
	l7.059-22.464c0.112-0.36,0.351-0.542,0.713-0.542h6.988c0.362,0,0.601,0.182,0.714,0.542l7.057,22.464
	c0.022,0.066,0.035,0.146,0.035,0.237c0,0.34-0.192,0.509-0.576,0.509h-5.498C243.544,259.237,243.308,259.058,243.216,258.695
	 M236.363,250.889c0,0.16,0.078,0.238,0.238,0.238h4.207c0.09,0,0.157-0.028,0.203-0.084c0.045-0.057,0.056-0.13,0.033-0.221
	l-2.172-7.839c-0.021-0.113-0.073-0.169-0.152-0.169s-0.141,0.056-0.186,0.169l-2.172,7.839V250.889z"/>
<path fill="#005FAD" d="M74.019,280.014c-0.055-0.056-0.083-0.131-0.083-0.229V278.7c0-0.153,0.048-0.286,0.145-0.397
	c0.766-0.86,1.564-1.794,2.4-2.796c0.833-1.001,1.37-1.64,1.606-1.918c0.028-0.027,0.243-0.285,0.647-0.771
	c1.293-1.543,1.94-2.74,1.94-3.588c0-0.654-0.219-1.18-0.658-1.575c-0.437-0.397-1.018-0.594-1.741-0.594
	c-0.724,0-1.3,0.201-1.732,0.604c-0.43,0.405-0.639,0.933-0.626,1.586v0.522c0,0.097-0.027,0.175-0.084,0.229
	c-0.054,0.057-0.131,0.083-0.228,0.083h-1.398c-0.097,0-0.174-0.026-0.23-0.083c-0.055-0.054-0.083-0.132-0.083-0.229v-0.793
	c0.028-0.725,0.233-1.363,0.616-1.919c0.382-0.558,0.899-0.984,1.554-1.283c0.654-0.298,1.39-0.449,2.211-0.449
	c0.89,0,1.669,0.167,2.337,0.501c0.667,0.334,1.181,0.791,1.543,1.376c0.361,0.584,0.542,1.246,0.542,1.983
	c0,1.153-0.625,2.516-1.877,4.088c-0.793,1.015-2.184,2.671-4.173,4.965c-0.026,0.028-0.035,0.056-0.021,0.083
	c0.015,0.028,0.043,0.042,0.083,0.042h6.071c0.097,0,0.175,0.028,0.231,0.083c0.054,0.056,0.083,0.133,0.083,0.229v1.106
	c0,0.098-0.029,0.173-0.083,0.229c-0.056,0.057-0.134,0.085-0.231,0.085h-8.531C74.151,280.099,74.074,280.07,74.019,280.014"/>
<path fill="#005FAD" d="M86.691,279.106c-0.827-0.8-1.241-1.874-1.241-3.222v-6.175c0-1.35,0.414-2.422,1.241-3.213
	c0.828-0.793,1.945-1.188,3.349-1.188c1.404,0,2.528,0.396,3.369,1.188c0.842,0.791,1.262,1.863,1.262,3.213v6.175
	c0,1.348-0.42,2.422-1.262,3.222c-0.841,0.8-1.965,1.2-3.369,1.2C88.636,280.307,87.52,279.906,86.691,279.106 M91.96,277.875
	c0.472-0.465,0.708-1.088,0.708-1.865v-6.385c0-0.778-0.236-1.4-0.708-1.866c-0.474-0.465-1.113-0.698-1.92-0.698
	c-0.779,0-1.404,0.233-1.877,0.698c-0.474,0.466-0.71,1.088-0.71,1.866v6.385c0,0.777,0.236,1.4,0.71,1.865
	c0.473,0.468,1.098,0.699,1.877,0.699C90.847,278.574,91.486,278.343,91.96,277.875"/>
<path fill="#005FAD" d="M97.174,280.014c-0.055-0.056-0.083-0.131-0.083-0.229V278.7c0-0.153,0.048-0.286,0.145-0.397
	c0.766-0.86,1.564-1.794,2.4-2.796c0.833-1.001,1.37-1.64,1.606-1.918c0.028-0.027,0.243-0.285,0.647-0.771
	c1.293-1.543,1.94-2.74,1.94-3.588c0-0.654-0.219-1.18-0.658-1.575c-0.437-0.397-1.018-0.594-1.741-0.594
	c-0.724,0-1.3,0.201-1.732,0.604c-0.43,0.405-0.639,0.933-0.626,1.586v0.522c0,0.097-0.027,0.175-0.084,0.229
	c-0.054,0.057-0.131,0.083-0.228,0.083h-1.398c-0.097,0-0.174-0.026-0.23-0.083c-0.055-0.054-0.083-0.132-0.083-0.229v-0.793
	c0.028-0.725,0.233-1.363,0.616-1.919c0.382-0.558,0.899-0.984,1.554-1.283c0.653-0.298,1.39-0.449,2.211-0.449
	c0.89,0,1.669,0.167,2.337,0.501c0.667,0.334,1.181,0.791,1.543,1.376c0.361,0.584,0.542,1.246,0.542,1.983
	c0,1.153-0.625,2.516-1.877,4.088c-0.793,1.015-2.184,2.671-4.173,4.965c-0.027,0.028-0.035,0.056-0.021,0.083
	c0.015,0.028,0.043,0.042,0.083,0.042h6.071c0.097,0,0.175,0.028,0.23,0.083c0.054,0.056,0.083,0.133,0.083,0.229v1.106
	c0,0.098-0.029,0.173-0.083,0.229c-0.056,0.057-0.134,0.085-0.23,0.085h-8.531C97.306,280.099,97.229,280.07,97.174,280.014"/>
<path fill="#005FAD" d="M110.774,265.495h1.481c0.097,0,0.174,0.027,0.23,0.083c0.055,0.056,0.083,0.133,0.083,0.229v13.977
	c0,0.1-0.028,0.175-0.083,0.23c-0.056,0.055-0.133,0.084-0.23,0.084h-1.376c-0.097,0-0.174-0.029-0.23-0.084
	c-0.055-0.056-0.083-0.131-0.083-0.23V267.56c0-0.027-0.015-0.051-0.043-0.072c-0.026-0.02-0.055-0.022-0.083-0.011l-2.065,0.709
	c-0.029,0.015-0.069,0.021-0.125,0.021c-0.153,0-0.229-0.09-0.229-0.271v-0.959c0-0.154,0.076-0.271,0.229-0.356l2.128-1.042
	C110.489,265.522,110.621,265.495,110.774,265.495"/>
<path fill="#005FAD" d="M115.958,279.681c-0.285-0.278-0.428-0.627-0.428-1.044c0-0.389,0.154-0.723,0.459-1.001
	c0.306-0.276,0.654-0.417,1.044-0.417c0.389,0,0.74,0.141,1.053,0.417c0.313,0.278,0.47,0.612,0.47,1.001
	c0,0.404-0.147,0.747-0.438,1.032c-0.292,0.285-0.654,0.43-1.085,0.43C116.602,280.099,116.243,279.958,115.958,279.681"/>
<path fill="#005FAD" d="M120.351,274.506c-0.055-0.055-0.083-0.132-0.083-0.229v-1.106c0-0.098,0.028-0.173,0.083-0.228
	c0.056-0.056,0.131-0.083,0.23-0.083h6.237c0.097,0,0.174,0.027,0.229,0.083c0.057,0.055,0.085,0.13,0.085,0.228v1.106
	c0,0.097-0.028,0.174-0.085,0.229c-0.055,0.058-0.132,0.085-0.229,0.085h-6.237C120.481,274.591,120.407,274.563,120.351,274.506"/>
<path fill="#005FAD" d="M129.09,280.014c-0.056-0.056-0.083-0.131-0.083-0.229V278.7c0-0.153,0.048-0.286,0.145-0.397
	c0.766-0.86,1.564-1.794,2.4-2.796c0.833-1.001,1.369-1.64,1.605-1.918c0.028-0.027,0.243-0.285,0.647-0.771
	c1.293-1.543,1.94-2.74,1.94-3.588c0-0.654-0.22-1.18-0.658-1.575c-0.438-0.397-1.019-0.594-1.741-0.594
	c-0.724,0-1.301,0.201-1.731,0.604c-0.432,0.405-0.64,0.933-0.628,1.586v0.522c0,0.097-0.025,0.175-0.083,0.229
	c-0.054,0.057-0.131,0.083-0.228,0.083h-1.399c-0.096,0-0.173-0.026-0.229-0.083c-0.055-0.054-0.083-0.132-0.083-0.229v-0.793
	c0.028-0.725,0.232-1.363,0.616-1.919c0.382-0.558,0.899-0.984,1.555-1.283c0.653-0.298,1.39-0.449,2.211-0.449
	c0.89,0,1.669,0.167,2.336,0.501c0.668,0.334,1.181,0.791,1.544,1.376c0.36,0.584,0.542,1.246,0.542,1.983
	c0,1.153-0.625,2.516-1.877,4.088c-0.793,1.015-2.185,2.671-4.173,4.965c-0.027,0.028-0.035,0.056-0.021,0.083
	c0.015,0.028,0.043,0.042,0.083,0.042h6.071c0.098,0,0.174,0.028,0.23,0.083c0.055,0.056,0.083,0.133,0.083,0.229v1.106
	c0,0.098-0.028,0.173-0.083,0.229c-0.057,0.057-0.133,0.085-0.23,0.085h-8.531C129.221,280.099,129.145,280.07,129.09,280.014"/>
<path fill="#005FAD" d="M141.763,279.106c-0.828-0.8-1.241-1.874-1.241-3.222v-6.175c0-1.35,0.413-2.422,1.241-3.213
	c0.828-0.793,1.944-1.188,3.349-1.188c1.403,0,2.527,0.396,3.369,1.188c0.841,0.791,1.261,1.863,1.261,3.213v6.175
	c0,1.348-0.42,2.422-1.261,3.222c-0.842,0.8-1.966,1.2-3.369,1.2C143.708,280.307,142.591,279.906,141.763,279.106 M147.031,277.875
	c0.472-0.465,0.709-1.088,0.709-1.865v-6.385c0-0.778-0.237-1.4-0.709-1.866c-0.473-0.465-1.112-0.698-1.919-0.698
	c-0.779,0-1.404,0.233-1.878,0.698c-0.473,0.466-0.71,1.088-0.71,1.866v6.385c0,0.777,0.237,1.4,0.71,1.865
	c0.474,0.468,1.099,0.699,1.878,0.699C145.918,278.574,146.558,278.343,147.031,277.875"/>
<path fill="#005FAD" d="M152.245,280.014c-0.055-0.056-0.083-0.131-0.083-0.229V278.7c0-0.153,0.049-0.286,0.145-0.397
	c0.766-0.86,1.565-1.794,2.4-2.796c0.834-1.001,1.37-1.64,1.606-1.918c0.028-0.027,0.243-0.285,0.647-0.771
	c1.292-1.543,1.939-2.74,1.939-3.588c0-0.654-0.22-1.18-0.658-1.575c-0.438-0.397-1.019-0.594-1.741-0.594
	c-0.724,0-1.3,0.201-1.731,0.604c-0.431,0.405-0.639,0.933-0.627,1.586v0.522c0,0.097-0.026,0.175-0.084,0.229
	c-0.054,0.057-0.13,0.083-0.228,0.083h-1.397c-0.098,0-0.174-0.026-0.23-0.083c-0.055-0.054-0.083-0.132-0.083-0.229v-0.793
	c0.028-0.725,0.233-1.363,0.615-1.919c0.383-0.558,0.899-0.984,1.555-1.283c0.653-0.298,1.391-0.449,2.211-0.449
	c0.89,0,1.669,0.167,2.337,0.501s1.182,0.791,1.544,1.376c0.36,0.584,0.542,1.246,0.542,1.983c0,1.153-0.626,2.516-1.878,4.088
	c-0.793,1.015-2.185,2.671-4.173,4.965c-0.026,0.028-0.034,0.056-0.021,0.083c0.015,0.028,0.043,0.042,0.083,0.042h6.071
	c0.097,0,0.174,0.028,0.23,0.083c0.055,0.056,0.083,0.133,0.083,0.229v1.106c0,0.098-0.028,0.173-0.083,0.229
	c-0.057,0.057-0.134,0.085-0.23,0.085h-8.532C152.376,280.099,152.299,280.07,152.245,280.014"/>
<path fill="#005FAD" d="M165.2,279.743l4.673-12.393c0.028-0.083,0-0.125-0.083-0.125h-4.986c-0.069,0-0.104,0.037-0.104,0.105
	v0.854c0,0.098-0.028,0.175-0.085,0.23c-0.055,0.057-0.131,0.084-0.229,0.084h-1.044c-0.097,0-0.174-0.027-0.229-0.084
	c-0.057-0.056-0.083-0.133-0.083-0.23v-2.378c0-0.097,0.026-0.174,0.083-0.229c0.055-0.057,0.132-0.084,0.229-0.084h8.365
	c0.096,0,0.174,0.027,0.23,0.084c0.055,0.055,0.083,0.132,0.083,0.229v1.232c0,0.097-0.021,0.223-0.063,0.374l-4.673,12.434
	c-0.056,0.167-0.174,0.25-0.354,0.25h-1.502C165.193,280.098,165.117,279.979,165.2,279.743"/>
<path fill="#005FAD" d="M173.053,279.681c-0.285-0.278-0.428-0.627-0.428-1.044c0-0.389,0.154-0.723,0.46-1.001
	c0.305-0.276,0.653-0.417,1.043-0.417c0.389,0,0.74,0.141,1.054,0.417c0.313,0.278,0.47,0.612,0.47,1.001
	c0,0.404-0.147,0.747-0.438,1.032c-0.292,0.285-0.654,0.43-1.085,0.43S173.338,279.958,173.053,279.681"/>
<path fill="#005FAD" d="M181.055,35.111c2.234-1.005,3.264-3.64,4.007-5.907c1.487-4.532,1.88-9.521,1.586-14.154
	c-0.186-3.458-0.693-7.064-2.378-10.164c-1.008-1.837-2.747-3.423-4.606-4.168c-5.63-2.349-14.657,1.417-18.509,6.184
	c-1.757,2.059-2.021,5.389-1.54,8.069c1.37,8.327,10.079,19.259,18.309,20.482C178.937,35.661,180.111,35.552,181.055,35.111"/>
<path fill="#005FAD" d="M70.896,192.227c-7.611,1.132-15.952,0.13-23.131-2.644c-7.678-3.078-14.769-7.88-21.465-12.779
	c-7.451-5.636-14.032-13.035-18.453-21.316c-2.867-5.319-4.676-11.608-4.213-17.653c0.356-4.757,2.379-9.509,4.933-13.667
	c5.84-9.551,14.518-17.695,24.266-23.18c7.273-4.1,15.495-7.412,23.81-7.91c6.242-0.424,12.789,1.081,18.474,3.889
	c4.003,2.047,7.58,5.111,10.496,8.577c3.037,3.401,4.984,7.485,6.643,11.6c2.499,5.697,3.85,11.964,4.559,18.189
	c1.379,9.724,1.149,20.01-1.066,29.564c-1.325,5.375-3.37,10.584-6.393,15.195C85.134,186.672,78.456,190.992,70.896,192.227
	 M62.753,154.945c1.927-1.512,2.294-4.317,2.472-6.696c0.356-4.757-0.461-9.694-1.858-14.12c-1.009-3.313-2.368-6.691-4.747-9.297
	c-1.419-1.541-3.488-2.664-5.472-2.941c-6.028-0.929-13.889,4.893-16.484,10.445c-1.212,2.421-0.668,5.716,0.441,8.203
	c3.329,7.755,14.406,16.277,22.69,15.49C60.829,155.987,61.941,155.6,62.753,154.945"/>
<path fill="#005FAD" d="M124.637,133.748c-9.5,5.625-20.062,9.808-30.768,13.008c-2.19,0.617-4.766-0.35-5.883-2.376
	c-0.5-1.056-0.47-1.974,0.3-2.911c5.04-5.268,10.21-10.309,14.858-15.948c6.169-7.329,13.156-18.2,4.517-22.342
	c-3.512-1.737-7.67-1.864-11.598-1.838c-7.792-0.124-15.804-1.33-23.059-4.205c-5.036-2.005-10.108-5.035-13.4-9.338
	c-2.256-3.138-3.63-7.271-3.65-11.19c0.028-6.98,2.801-14.159,6.677-20.068c4.244-6.286,10.029-11.564,16.257-15.898
	c9.346-6.602,19.783-11.457,30.474-15.412c2.673-1.066,5.57,0.908,5.163,3.886c-0.215,1.354-1.393,2.386-2.279,3.395
	c-3.41,3.498-6.581,7.142-9.201,11.194c-2.229,3.217-4.185,6.854-5.043,10.569c-0.688,2.55-0.701,5.429,0.506,7.854
	c1.011,2.092,3.136,3.797,5.245,4.747c4.708,2.21,10.032,2.507,15.167,2.48c6.913-0.079,13.892,1.169,20.414,3.601
	c5.275,2.152,10.593,5.337,14.133,9.781c2.567,3.4,3.933,7.993,3.691,12.223c-0.464,6.045-3.551,11.757-7.18,16.6
	C143.333,120.553,134.424,128.09,124.637,133.748"/>
<path fill="#005FAD" d="M177.588,89.615c-0.812,0.634-2.85,1.493-3.748,1.253c-1.588-0.36-2.961-1.126-4.231-1.944
	c-7.593-4.951-13.854-11.404-19.733-17.953c-9.627-10.67-18.292-22.21-25.143-34.732c-1.332-2.387-2.461-5.182-2.073-7.968
	c0.464-2.167,2.107-4.397,4.059-5.87c3.787-3.155,8.165-5.596,12.612-7.685c2.299-1.152,4.889-2.092,7.454-2.338
	c1.62-0.064,3.373,0.324,4.634,1.148c2.939,1.805,4.909,4.746,6.322,7.76c3.858,7.932,5.863,16.761,8.184,25.384
	c2.978,12.105,6.891,24.033,10.861,35.796c0.191,0.547,1.668,3.664,1.744,4.282C178.795,87.654,178.41,88.975,177.588,89.615"/>
<path fill="#005FAD" d="M114.368,158.696c-0.115-2.586,0.509-5.342,1.686-7.648c1.296-2.462,3.148-4.668,5.02-6.739
	c2.143-2.298,4.847-4.243,7.771-5.436c1.878-0.775,4.046-1.162,6.053-0.798c1.579,0.285,3.099,1.126,4.401,2.124
	c2.993,2.285,5.418,5.471,6.915,8.922c1.12,2.576,1.943,5.441,1.822,8.241c-0.074,2.103-0.805,4.242-1.941,6.046
	c-0.823,1.268-1.973,2.359-3.233,3.215c-1.243,0.899-2.677,1.408-4.111,1.821c-1.993,0.639-4.137,0.874-6.243,0.895
	c-3.302,0.125-6.735-0.309-9.854-1.381c-1.753-0.629-3.425-1.494-4.863-2.665C115.733,163.653,114.519,161.268,114.368,158.696"/>
<path fill="#005FAD" d="M239.826,107.663c-1.919-3.151-4.272-6.066-7.04-8.42c-0.526-0.435-1.115-0.804-1.667-1.214l-5.406,12.655
	l-6.682-18.847c-1.372-0.412-2.755-0.781-4.152-1.012c-3.833-0.666-7.781-0.735-11.725-0.416l31.715,87.621
	c0.923-1.473,1.802-2.976,2.596-4.525c3.076-6.213,5.241-12.997,6.657-19.893l-8.547-23.046l10.645,4.994
	c0.083-3.906-0.116-7.809-0.813-11.606c-0.196-1.284-0.427-2.568-0.691-3.848l-9.141-3.943L239.826,107.663z"/>
<path fill="#005FAD" d="M224.544,161.867l-16.68,5.177l-4.192-12.837l16.069-5.558l-8.498-23.385l-13.756,5.459l-5.592-19.256
	l12.867-4.039l-6.003-16.519c-3.422,0.523-6.808,1.303-10.075,2.247c-4.89,1.41-9.68,3.409-14.229,5.868l27.575,95.917
	c1.166,0.195,2.334,0.356,3.495,0.454c8.01,0.562,15.864-2.235,21.755-7.93c1.699-1.613,3.227-3.392,4.657-5.249L224.544,161.867z"
	/>
<path fill="#005FAD" d="M170.834,101.121c-4.294,2.655-8.299,5.747-11.853,9.237c3.215,10.825,9.438,31.827,11.883,40.457
	c1.383,4.879-0.026,10.202-6.054,4.292c-9.311-9.13-15.491-17.749-15.805-18.19c0.229,1.975,0.556,3.931,1.061,5.811
	c2.514,9.512,7.444,18.645,13.688,26.189c5.649,6.612,11.726,13.218,18.815,18.208c4.339,2.973,9.366,5.279,14.564,6.725
	L170.834,101.121z"/>
</svg>
