<?xml version="1.0" encoding="utf-8"?>
<!-- Generator: Adobe Illustrator 16.0.0, SVG Export Plug-In . SVG Version: 6.00 Build 0)  -->
<!DOCTYPE svg PUBLIC "-//W3C//DTD SVG 1.1//EN" "http://www.w3.org/Graphics/SVG/1.1/DTD/svg11.dtd">
<svg version="1.1" id="Layer_1" xmlns="http://www.w3.org/2000/svg" xmlns:xlink="http://www.w3.org/1999/xlink" x="0px" y="0px"
	 width="233.106px" height="240.351px" viewBox="0 0 233.106 240.351" enable-background="new 0 0 233.106 240.351"
	 xml:space="preserve">
<g>
	<defs>
		<path id="SVGID_1_" d="M83.676,95v42.246c0,1.631,1.321,2.953,2.952,2.953c1.63,0,2.951-1.322,2.951-2.953V95
			c0-1.631-1.321-2.952-2.951-2.952C84.997,92.049,83.676,93.37,83.676,95"/>
	</defs>
	<clipPath id="SVGID_2_">
		<use xlink:href="#SVGID_1_"  overflow="visible"/>
	</clipPath>
	
		<linearGradient id="SVGID_3_" gradientUnits="userSpaceOnUse" x1="-1076.6025" y1="1336.3564" x2="-1075.6025" y2="1336.3564" gradientTransform="matrix(69.3592 -169.7011 -169.7011 -69.3592 301509.8438 -89821.4766)">
		<stop  offset="0" style="stop-color:#000011"/>
		<stop  offset="0.1432" style="stop-color:#000D22"/>
		<stop  offset="0.4262" style="stop-color:#002F4D"/>
		<stop  offset="0.8182" style="stop-color:#006693"/>
		<stop  offset="1" style="stop-color:#0081B6"/>
	</linearGradient>
	<polygon clip-path="url(#SVGID_2_)" fill="url(#SVGID_3_)" points="66.813,133.308 84.521,89.981 106.442,98.941 88.734,142.268 	
		"/>
</g>
<g>
	<defs>
		<path id="SVGID_4_" d="M72.428,95v42.246c0,1.631,1.321,2.953,2.952,2.953s2.953-1.322,2.953-2.953V95
			c0-1.631-1.322-2.952-2.953-2.952S72.428,93.37,72.428,95"/>
	</defs>
	<clipPath id="SVGID_5_">
		<use xlink:href="#SVGID_4_"  overflow="visible"/>
	</clipPath>
	
		<linearGradient id="SVGID_6_" gradientUnits="userSpaceOnUse" x1="-1076.6011" y1="1336.3525" x2="-1075.6011" y2="1336.3525" gradientTransform="matrix(69.3587 -169.7 -169.7 -69.3587 301497.3438 -89825.0859)">
		<stop  offset="0" style="stop-color:#000011"/>
		<stop  offset="0.1432" style="stop-color:#000D22"/>
		<stop  offset="0.4262" style="stop-color:#002F4D"/>
		<stop  offset="0.8182" style="stop-color:#006693"/>
		<stop  offset="1" style="stop-color:#0081B6"/>
	</linearGradient>
	<polygon clip-path="url(#SVGID_5_)" fill="url(#SVGID_6_)" points="55.564,133.308 73.272,89.98 95.196,98.941 77.488,142.268 	"/>
</g>
<g>
	<defs>
		<path id="SVGID_7_" d="M162.403,66.389v53.372l5.905,4.057V66.389c0-1.63-1.322-2.952-2.953-2.952
			C163.726,63.437,162.403,64.759,162.403,66.389"/>
	</defs>
	<clipPath id="SVGID_8_">
		<use xlink:href="#SVGID_7_"  overflow="visible"/>
	</clipPath>
	
		<linearGradient id="SVGID_9_" gradientUnits="userSpaceOnUse" x1="-1076.6016" y1="1336.3555" x2="-1075.6031" y2="1336.3555" gradientTransform="matrix(69.3593 -169.7014 -169.7014 -69.3593 301569.6875 -89797.6719)">
		<stop  offset="0" style="stop-color:#000011"/>
		<stop  offset="0.1432" style="stop-color:#000D22"/>
		<stop  offset="0.4262" style="stop-color:#002F4D"/>
		<stop  offset="0.8182" style="stop-color:#006693"/>
		<stop  offset="1" style="stop-color:#0081B6"/>
	</linearGradient>
	<polygon clip-path="url(#SVGID_8_)" fill="url(#SVGID_9_)" points="141.257,115.175 163.249,61.369 189.454,72.079 
		167.463,125.886 	"/>
</g>
<g>
	<defs>
		<path id="SVGID_10_" d="M90.839,180.845c0-1.63,1.322-2.952,2.952-2.952h45.387c1.63,0,2.952,1.322,2.952,2.952
			s-1.322,2.953-2.952,2.953H93.791C92.161,183.797,90.839,182.475,90.839,180.845 M76.641,168.142c0-1.63,1.321-2.952,2.953-2.952
			h73.782c1.632,0,2.953,1.322,2.953,2.952c0,1.631-1.321,2.952-2.953,2.952H79.594C77.962,171.094,76.641,169.772,76.641,168.142
			 M69.248,155.438c0-1.63,1.321-2.953,2.951-2.953h88.57c1.631,0,2.952,1.323,2.952,2.953s-1.321,2.952-2.952,2.952h-88.57
			C70.569,158.39,69.248,157.067,69.248,155.438 M67.366,134.855V86.634h18.779h8.495v3.271v44.951v10.381H67.366V134.855z
			 M100.546,134.855v-44.73v-6.444v-6.975h18.106v1.322v5.023h-3.598h-6.207c-1.631,0-2.953,1.322-2.953,2.952
			c0,1.032,0.532,1.937,1.335,2.466c0.465,0.306,1.02,0.486,1.618,0.486h9.805v10.631h-9.805c-1.631,0-2.953,1.323-2.953,2.952
			c0,1.631,1.322,2.953,2.953,2.953h9.805v10.632h-9.805c-1.631,0-2.953,1.322-2.953,2.953c0,1.63,1.322,2.952,2.953,2.952h9.805
			v6.518v4.113h-9.805c-1.368,0-2.507,0.934-2.843,2.196c-0.065,0.243-0.11,0.493-0.11,0.757c0,1.63,1.322,2.952,2.953,2.952h9.805
			v5.084v1.588h-18.106V134.855z M133.724,56.688h40.49v71.185v4.786v2.196v3.709v7.063h-14.341v-11.616
			c0-1.63-1.321-2.952-2.952-2.952c-1.632,0-2.953,1.322-2.953,2.952v11.616h-14.34v-1.979v-8.793v-7.171l17.217-11.745l0.076,0.054
			V66.389c0-1.63-1.322-2.952-2.953-2.952s-2.951,1.322-2.951,2.952v49.551h-5.484V66.389c0-1.63-1.32-2.952-2.952-2.952
			c-1.63,0-2.952,1.322-2.952,2.952v49.551h-5.904V56.688z M94.999,44.772C85.411,46.17,77.58,53.77,75.936,63.317
			c-1.125,6.529,0.53,12.653,3.964,17.412H64.415c-0.27,0-0.525,0.047-0.773,0.115l-0.001-0.115l-0.304,0.209
			c-0.423,0.166-0.793,0.427-1.093,0.756l-9.255,6.212l0.024,46.949l0.019,1.617c0.898,32.926,28.993,59.356,63.544,59.356
			c34.814,0,63.027-26.609,63.517-59.881c0.003-0.291,0.024-1.092,0.024-1.092V53.736c0-1.631-1.321-2.952-2.952-2.952h-46.394
			c-0.282,0-0.55,0.051-0.81,0.127V50.89l-0.063,0.042c-0.519,0.16-0.972,0.454-1.324,0.851l-9.38,6.034
			c-3.619-7.846-11.55-13.295-20.757-13.295C97.309,44.521,96.161,44.604,94.999,44.772"/>
	</defs>
	<clipPath id="SVGID_11_">
		<use xlink:href="#SVGID_10_"  overflow="visible"/>
	</clipPath>
	
		<linearGradient id="SVGID_12_" gradientUnits="userSpaceOnUse" x1="-1076.6001" y1="1336.3486" x2="-1075.6001" y2="1336.3486" gradientTransform="matrix(69.3589 -169.7005 -169.7005 -69.3589 301534.0625 -89810.3594)">
		<stop  offset="0" style="stop-color:#000011"/>
		<stop  offset="0.1432" style="stop-color:#000D22"/>
		<stop  offset="0.4262" style="stop-color:#002F4D"/>
		<stop  offset="0.8182" style="stop-color:#006693"/>
		<stop  offset="1" style="stop-color:#0081B6"/>
	</linearGradient>
	<polygon clip-path="url(#SVGID_11_)" fill="url(#SVGID_12_)" points="0,174.171 71.186,0 233.106,66.179 161.921,240.351 	"/>
</g>
<path fill="#063C5D" d="M34.203,146.314c5.436-1.541,9.428,1.241,10.642,5.524c1.207,4.257-0.728,8.721-6.163,10.262
	c-5.435,1.542-9.427-1.241-10.634-5.497C26.833,152.32,28.771,147.856,34.203,146.314 M37.828,159.268
	c4.375-1.243,5.979-4.011,5.158-6.903c-0.828-2.918-3.646-4.43-8.021-3.19c-4.353,1.234-5.956,4.002-5.128,6.92
	C30.658,158.989,33.476,160.501,37.828,159.268"/>
<path fill="#063C5D" d="M37.4,164.775c4.354-2.222,7.345-0.344,8.511,1.942c0.866,1.696,0.8,3.075,0.439,4.194l3.612-1.844
	l-0.845-1.656l1.438-0.733l1.82,3.57c0.155,0.305,0.005,0.546-0.364,0.735l-12.65,6.456c-0.282,0.143-0.455,0.616-0.309,0.896
	l0.433,0.85l-1.394,0.711l-1.678-3.288c-0.133-0.26,0.105-0.601,1.334-1.255c-1.346-0.329-2.741-1.181-3.633-2.923
	C32.941,170.124,33.024,167.008,37.4,164.775 M39.011,174.655l6.075-3.1c0.2-1.009,0.16-2.056-0.441-3.233
	c-0.854-1.677-2.604-2.841-5.934-1.143c-3.483,1.778-3.534,3.725-2.79,5.183C36.62,173.734,37.797,174.314,39.011,174.655"/>
<path fill="#063C5D" d="M40.808,180.995l0.556,0.775c0.187,0.258,0.664,0.334,0.922,0.148l6.685-4.81
	c0.236-0.172,0.354-0.677,0.17-0.935l-0.615-0.854l1.35-0.971l2.184,3.035c0.215,0.298,0.101,0.682-1.03,1.496l-0.337,0.243
	c1.46,0.062,2.989,0.346,4.032,1.794c0.17,0.236,0.274,0.465,0.349,0.652l-1.766,1.271l-0.301-0.417
	c-1.141-1.587-2.176-2.229-3.407-2.515l-6.306,4.541l1.186,1.646l-1.27,0.914l-3.67-5.099L40.808,180.995z"/>
<path fill="#063C5D" d="M47.176,189.412l12.166-0.615l-3.801-4.037l-1.837,1.36l-1.088-1.155l2.915-2.746l7.165,7.611l-1.333,1.255
	l-12.164,0.582l3.95,4.197l1.821-1.379l1.138,1.21l-2.898,2.729l-7.332-7.79L47.176,189.412z M63.668,185.662l-3.104,0.372
	l-1.572-1.672l0.61-3.021l0.532-0.504l0.737,0.783l0.079,2.543l2.548,0.249l0.704,0.747L63.668,185.662z"/>
<path fill="#063C5D" d="M56.118,198.83l0.732,0.611c0.244,0.202,0.726,0.159,0.929-0.084l5.277-6.32
	c0.187-0.225,0.193-0.728-0.05-0.933l-0.825-0.687l1.063-1.277l2.964,2.475c0.262,0.219,0.188,0.539-0.347,1.176l-6.058,7.258
	c-0.22,0.262-0.16,0.725,0.084,0.928l0.729,0.611l-1.002,1.2l-4.5-3.758L56.118,198.83z M66.168,188.89
	c0.532-0.637,1.463-0.721,2.119-0.174c0.637,0.532,0.739,1.477,0.207,2.116c-0.532,0.637-1.481,0.704-2.118,0.172
	C65.72,190.455,65.636,189.526,66.168,188.89"/>
<path fill="#063C5D" d="M67.337,196.84c0.086-0.497-0.009-0.936-0.339-1.148l-0.412-0.262l0.895-1.399l4.755,3.04l-0.895,1.398
	l-1.523-0.973l-1.943,8.935l0.041,0.027l6.139-4.57c0.682-0.522,0.97-1.061,0.208-1.55l-0.535-0.342l0.896-1.398l4.322,2.763
	l-0.895,1.398l-0.372-0.236c-0.369-0.236-0.815-0.174-1.276,0.141l-9.107,6.439l-2.037-1.303L67.337,196.84z"/>
<path fill="#063C5D" d="M74.889,211.611l0.866,0.401c0.289,0.133,0.742-0.034,0.876-0.323l3.454-7.475
	c0.122-0.267-0.002-0.754-0.291-0.887l-0.976-0.451l0.699-1.511l3.503,1.62c0.313,0.143,0.321,0.473-0.027,1.227l-3.967,8.584
	c-0.144,0.31,0.033,0.743,0.322,0.876l0.863,0.399l-0.656,1.419l-5.323-2.46L74.889,211.611z M82.014,199.397
	c0.351-0.754,1.226-1.076,2.001-0.716c0.755,0.348,1.098,1.234,0.75,1.987c-0.349,0.755-1.246,1.067-2,0.719
	C81.987,201.029,81.665,200.153,82.014,199.397"/>
<path fill="#063C5D" d="M88.357,215.667l1.802-7.256c0.076-0.307-0.172-0.721-0.479-0.799l-0.927-0.229l0.401-1.613l4.125,1.026
	l-2.161,8.702c-0.402,1.612,0.329,2.221,1.491,2.509c1.281,0.318,2.68,0.062,3.839-0.355l1.957-7.871l-1.78-0.442l0.4-1.613
	l4.341,1.079l-2.546,10.243c-0.077,0.307,0.167,0.746,0.498,0.827l0.95,0.237l-0.377,1.517l-3.582-0.89
	c-0.331-0.081-0.498-0.425-0.21-1.586l0.079-0.308c-1.565,0.818-3.252,1.23-5.269,0.729
	C89.181,219.146,87.764,218.063,88.357,215.667"/>
<path fill="#063C5D" d="M102.466,220.289l0.947,0.093c0.314,0.031,0.689-0.277,0.721-0.592l0.804-8.191
	c0.028-0.293-0.274-0.713-0.589-0.747l-1.046-0.1l0.163-1.653l3.72,0.365c0.362,0.035,0.574,0.374,0.438,1.761l-0.04,0.412
	c1.011-1.054,2.235-2.014,4.008-1.839c0.294,0.029,0.532,0.1,0.721,0.169l-0.212,2.162l-0.511-0.05
	c-1.944-0.191-3.106,0.162-4.138,0.895l-0.759,7.73l2.019,0.198l-0.152,1.555l-6.247-0.612L102.466,220.289z"/>
<path fill="#063C5D" d="M116.617,221.455c-0.193,0.814-0.664,1.367-0.957,1.377l-1.415,0.048l-0.499-14.798
	c-0.009-0.293-0.364-0.673-0.682-0.661l-1.025,0.033l-0.054-1.612l3.835-0.129c0.317-0.01,0.496,0.205,0.51,0.644l0.187,5.567
	c0.965-1.131,2.301-2.155,4.4-2.224c2.416-0.082,4.957,1.348,5.122,6.208c0.167,5.006-2.657,6.812-5.367,6.903
	C118.622,222.88,117.503,222.305,116.617,221.455 M123.311,216.218c-0.126-3.76-1.742-4.609-3.526-4.55
	c-1.245,0.041-2.37,0.764-3.225,1.501l0.232,6.984c0.759,0.708,1.678,1.143,3.095,1.095
	C121.621,221.188,123.444,220.174,123.311,216.218"/>
<path fill="#063C5D" d="M128.35,218.566c-0.489-2.593,1.346-4.206,4.253-4.753c1.127-0.212,2.015-0.253,2.943-0.205l-0.313-1.656
	c-0.301-1.608-1.346-2.009-2.954-1.706c-1.658,0.311-2.486,1.062-3.044,1.79l-1.2,0.224l-0.375-1.992
	c0.98-0.731,2.432-1.475,4.735-1.909c2.955-0.553,4.858,0.057,5.381,2.842l1.26,6.699c0.091,0.48,0.456,0.709,0.912,0.623
	l0.648-0.122l0.243,1.296c-0.296,0.279-0.862,0.561-1.584,0.697c-1.369,0.257-2.192-0.16-2.601-1.277
	c-0.721,1.329-1.842,2.112-3.521,2.427C130.733,221.994,128.817,221.062,128.35,218.566 M136.331,217.786l-0.516-2.737
	c-0.747-0.01-1.558,0.046-2.397,0.203c-1.826,0.341-2.807,1.198-2.513,2.758c0.288,1.537,1.27,2,2.734,1.723
	C134.959,219.485,135.715,218.747,136.331,217.786"/>
<path fill="#063C5D" d="M142.933,217.838l0.893-0.334c0.297-0.11,0.498-0.551,0.389-0.847l-2.877-7.714
	c-0.104-0.276-0.559-0.522-0.857-0.41l-0.985,0.365l-0.579-1.556l3.502-1.305c0.344-0.129,0.714,0.098,1.119,1.25l0.119,0.32
	c0.78-1.541,2.143-2.99,3.999-3.679c1.715-0.642,3.364-0.553,4.245,1.806l2.639,7.072c0.119,0.32,0.551,0.499,0.825,0.396
	l0.754-0.281l0.546,1.465l-5.471,2.039l-0.546-1.464l1.648-0.616l-2.56-6.867c-0.557-1.486-1.355-1.605-2.57-1.152
	c-1.281,0.477-2.275,1.448-3.075,2.45l2.827,7.576l1.67-0.623l0.547,1.465l-5.654,2.109L142.933,217.838z"/>
<path fill="#063C5D" d="M152.453,198.763c-0.395-0.732-0.127-1.625,0.627-2.033c0.73-0.394,1.646-0.136,2.04,0.594
	c0.393,0.733,0.105,1.637-0.628,2.03C153.741,199.76,152.847,199.493,152.453,198.763 M157.947,211.79l0.84-0.453
	c0.279-0.151,0.418-0.613,0.267-0.893l-3.907-7.248c-0.139-0.26-0.604-0.453-0.884-0.303l-0.946,0.51l-0.787-1.462l3.396-1.833
	c0.304-0.162,0.571,0.027,0.965,0.759l4.488,8.325c0.162,0.3,0.612,0.417,0.892,0.267l0.84-0.451l0.742,1.377l-5.163,2.782
	L157.947,211.79z"/>
<path fill="#063C5D" d="M168.665,205.561l0.757-0.58c0.25-0.193,0.314-0.675,0.121-0.926l-5.013-6.533
	c-0.179-0.233-0.689-0.334-0.94-0.14l-0.835,0.639l-1.012-1.319l2.969-2.276c0.288-0.222,0.678-0.12,1.524,0.985l0.253,0.329
	c0.02-1.46,0.255-2.999,1.67-4.085c0.234-0.176,0.456-0.288,0.642-0.367l1.324,1.725l-0.407,0.313
	c-1.551,1.19-2.159,2.242-2.41,3.481l4.731,6.165l1.608-1.236l0.951,1.241l-4.981,3.825L168.665,205.561z"/>
<path fill="#063C5D" d="M175.485,197.688c-1.881-1.849-1.297-4.218,0.774-6.325c0.804-0.818,1.508-1.36,2.298-1.849l-1.203-1.181
	c-1.166-1.145-2.25-0.878-3.397,0.289c-1.181,1.2-1.429,2.29-1.476,3.206l-0.853,0.869l-1.446-1.42
	c0.387-1.159,1.15-2.598,2.794-4.27c2.104-2.14,4.016-2.728,6.036-0.743l4.855,4.775c0.349,0.341,0.779,0.322,1.105-0.01l0.463-0.47
	l0.939,0.924c-0.083,0.398-0.389,0.954-0.901,1.476c-0.977,0.991-1.89,1.119-2.861,0.439c0.167,1.499-0.305,2.78-1.503,3.999
	C179.399,199.14,177.295,199.47,175.485,197.688 M181.585,192.493l-1.982-1.952c-0.619,0.42-1.253,0.926-1.852,1.536
	c-1.301,1.322-1.618,2.584-0.486,3.699c1.114,1.095,2.183,0.911,3.226-0.151C181.433,194.668,181.631,193.631,181.585,192.493"/>
<polygon fill="#063C5D" points="186.725,188.606 183.735,176.793 180.519,181.312 182.215,182.849 181.294,184.142 178.03,181.818 
	184.093,173.297 185.586,174.362 188.54,186.179 191.883,181.481 190.175,179.964 191.139,178.611 194.384,180.92 188.178,189.641 
	"/>
<path fill="#063C5D" d="M187.245,172.751c-0.502-0.028-0.926,0.12-1.098,0.47l-0.215,0.439l-1.494-0.728l2.472-5.073l1.494,0.727
	l-0.792,1.625l9.1,0.902l0.021-0.045l-5.246-5.571c-0.596-0.616-1.167-0.84-1.563-0.029l-0.28,0.573l-1.492-0.728l2.247-4.612
	l1.493,0.728l-0.192,0.396c-0.19,0.393-0.079,0.83,0.286,1.253l7.449,8.302l-1.06,2.174L187.245,172.751z"/>
<path fill="#063C5D" d="M196.569,162.52c-3.933-1.171-5.505-4.622-4.46-8.134c1.053-3.533,4.25-5.54,8.182-4.368
	c3.887,1.157,5.421,4.571,4.366,8.107C203.612,161.635,200.456,163.677,196.569,162.52 M199.535,152.647
	c-3.045-0.907-5.083,0.119-5.717,2.25c-0.636,2.131,0.513,4.102,3.555,5.008c2.997,0.892,5.013-0.138,5.646-2.269
	C203.653,155.505,202.531,153.54,199.535,152.647"/>
<path fill="#063C5D" d="M191.475,145.682c-0.818-0.143-1.357-0.906-1.209-1.749c0.141-0.818,0.909-1.381,1.728-1.238
	c0.818,0.141,1.35,0.928,1.209,1.747C193.057,145.286,192.292,145.823,191.475,145.682 M210.267,151.32l-1.324-0.229l0.15-0.866
	c0.222-1.277-0.258-1.806-1.437-2.011l-11.03-1.912c-0.288-0.052-0.728,0.196-0.782,0.509l-0.184,1.059l-1.64-0.284l0.661-3.806
	c0.058-0.336,0.372-0.431,1.19-0.288l12.354,2.142c2.336,0.404,2.994,1.759,2.622,3.901
	C210.708,150.356,210.52,150.869,210.267,151.32"/>
<path fill="#063C5D" d="M130.563,38.374h1.573c0.503,0,0.976-0.565,0.976-1.007v-15.89c0-0.473-0.473-1.038-0.976-1.038h-1.573
	v-2.076h8.747v2.076h-1.572c-0.503,0-0.976,0.565-0.976,1.038v15.89c0,0.442,0.473,1.007,0.976,1.007h1.572v2.014h-8.747V38.374z"/>
<path fill="#063C5D" d="M145.477,38.374h1.51c0.504,0,0.976-0.565,0.976-1.007V20.534h-4.722l-0.313,4.655h-2.359v-6.826h18.437
	v6.826h-2.36l-0.314-4.655h-4.72v16.833c0,0.442,0.473,1.007,0.975,1.007h1.512v2.014h-8.62V38.374z"/>
<path fill="#063C5D" d="M162.523,32.395V21.477c0-0.473-0.472-1.038-1.007-1.038h-1.26v-2.076h8.654v2.076h-2.771v12.147
	c0,4.404,2.172,5.504,5.35,5.504c3.147,0,5.318-1.069,5.318-5.504V20.439h-2.771v-2.076h7.709v2.076h-1.257
	c-0.473,0-0.977,0.565-0.977,1.038v10.918c0,5.602-2.862,8.212-8.4,8.212C165.732,40.607,162.523,37.997,162.523,32.395"/>
</svg>
